<svg width="58" height="65" viewBox="0 0 58 65" fill="none" xmlns="http://www.w3.org/2000/svg">
<path fill-rule="evenodd" clip-rule="evenodd" d="M31.2023 0C29.0109 0 27.2049 1.79829 27.2049 3.98869V14.2183L22.9616 19.2036C22.8245 19.3655 22.7364 19.5633 22.7078 19.7736C22.6792 19.9839 22.7112 20.1979 22.8002 20.3906C22.8891 20.5833 23.0312 20.7466 23.2097 20.8613C23.3883 20.976 23.5959 21.0373 23.8081 21.038H31.2023H32.8975H54.0095C56.2009 21.038 57.9982 19.2397 57.9982 17.0493V3.98869C57.9982 1.79829 56.2009 0 54.0095 0H31.2023ZM31.2023 2.22827H54.0095C55.008 2.22827 55.7699 2.99723 55.7699 3.98869V17.0493C55.7699 18.0408 55.008 18.8076 54.0095 18.8076H32.8975H31.2023H26.2192L29.1721 15.3542C29.3433 15.1517 29.4366 14.8947 29.4354 14.6296V3.98869C29.4354 2.99723 30.2038 2.22827 31.2023 2.22827ZM35.735 6.38235C35.4411 6.38349 35.1594 6.50078 34.9516 6.70866C34.7437 6.91654 34.6264 7.19815 34.6252 7.49213C34.6247 7.63844 34.6529 7.78343 34.7084 7.91882C34.7638 8.05422 34.8454 8.17736 34.9485 8.28122C35.0515 8.38508 35.174 8.46763 35.309 8.52415C35.444 8.58067 35.5887 8.61005 35.735 8.61062H49.7727C49.9192 8.61033 50.0642 8.58116 50.1994 8.52477C50.3346 8.46838 50.4574 8.38588 50.5606 8.28199C50.6639 8.1781 50.7457 8.05486 50.8013 7.91932C50.8569 7.78379 50.8852 7.63862 50.8847 7.49213C50.8835 7.19777 50.7659 6.91583 50.5576 6.70789C50.3492 6.49996 50.0671 6.38292 49.7727 6.38235H35.735ZM10.6017 7.3855C6.33656 7.3855 2.87021 10.8974 2.87021 15.1888C2.87021 17.8814 4.23374 20.269 6.30401 21.6734C2.58955 23.3221 8.06896e-06 27.0427 8.06896e-06 31.3677V36.2268V58.886C-0.00055149 59.033 0.027997 59.1787 0.0840082 59.3147C0.140019 59.4506 0.222385 59.5741 0.326358 59.6781C0.430331 59.7821 0.553855 59.8644 0.689809 59.9205C0.825762 59.9765 0.971458 60.005 1.1185 60.0045H28.0949V63.5079C28.0938 63.8034 28.2101 64.0872 28.4182 64.297C28.6263 64.5067 28.9092 64.6252 29.2047 64.6264H48.1864C48.3334 64.6269 48.4791 64.5984 48.6151 64.5424C48.751 64.4864 48.8745 64.404 48.9785 64.3C49.0825 64.1961 49.1648 64.0725 49.2208 63.9366C49.2769 63.8006 49.3054 63.6549 49.3048 63.5079V58.6466C49.3048 54.3216 46.709 50.6032 42.9921 48.9545C45.0657 47.5502 46.4346 45.1632 46.4346 42.4699C46.4346 38.1785 42.9596 34.6644 38.6945 34.6644C37.7956 34.6644 36.9339 34.8218 36.1311 35.1083H21.2099V31.3677C21.2099 27.0432 18.6155 23.3224 14.8994 21.6734C16.9722 20.269 18.3397 17.8815 18.3397 15.1888C18.3397 10.8974 14.8668 7.3855 10.6017 7.3855ZM10.6017 9.61378C13.6497 9.61378 16.1115 12.089 16.1115 15.1888C16.1115 18.2886 13.6497 20.766 10.6017 20.766C7.55366 20.766 5.09848 18.2886 5.09848 15.1888C5.09848 12.089 7.55366 9.61378 10.6017 9.61378ZM35.735 12.4339C35.4407 12.4351 35.1587 12.5527 34.9508 12.761C34.7429 12.9694 34.6258 13.2515 34.6252 13.5459C34.6247 13.6922 34.6529 13.8372 34.7084 13.9726C34.7638 14.108 34.8454 14.2311 34.9485 14.335C35.0515 14.4388 35.174 14.5214 35.309 14.5779C35.444 14.6344 35.5887 14.6638 35.735 14.6644H49.7727C49.9192 14.6641 50.0642 14.6349 50.1994 14.5785C50.3346 14.5221 50.4574 14.4396 50.5606 14.3357C50.6639 14.2319 50.7457 14.1086 50.8013 13.9731C50.8569 13.8375 50.8852 13.6924 50.8847 13.5459C50.8841 13.2511 50.7667 12.9687 50.5583 12.7602C50.3499 12.5518 50.0674 12.4345 49.7727 12.4339H35.735ZM10.6017 22.9943C15.2613 22.9943 18.9817 26.71 18.9817 31.3677V35.1083H2.22828V31.3677C2.22828 26.71 5.94211 22.9943 10.6017 22.9943ZM38.553 36.8949C38.6003 36.8937 38.6468 36.8949 38.6945 36.8949C41.7425 36.8949 44.2064 39.3701 44.2064 42.4699C44.2064 45.487 41.8732 47.9215 38.9382 48.0493C38.8573 48.047 38.7758 48.047 38.6944 48.047C38.6132 48.047 38.5337 48.0474 38.4529 48.0493C35.5183 47.9215 33.1934 45.487 33.1934 42.4699C33.1934 39.4185 35.5713 36.9706 38.553 36.8949ZM2.22828 37.3388H20.0914H32.8779C31.687 38.7134 30.9651 40.5108 30.9651 42.4699C30.9651 45.1626 32.3285 47.5501 34.3989 48.9545C30.9366 50.4913 28.4512 53.8275 28.1298 57.7762H2.22828V37.3388ZM38.6945 50.2754C43.354 50.2754 47.0766 53.9889 47.0766 58.6466V62.3981H30.3232V58.6466C30.3232 53.9889 34.0349 50.2754 38.6945 50.2754Z" fill="black"/>
</svg>
