<svg width="74" height="75" viewBox="0 0 74 75" fill="none" xmlns="http://www.w3.org/2000/svg">
<path d="M68.1444 35.2335L60.0693 27.1584C59.8554 26.9459 59.5662 26.8265 59.2646 26.8265C58.9631 26.8265 58.6738 26.9459 58.46 27.1584L40.7006 44.9179C40.5654 45.0556 40.4656 45.224 40.4095 45.4086L37.1852 56.708C37.1254 56.9068 37.1208 57.118 37.1721 57.3191C37.2234 57.5203 37.3285 57.7036 37.4762 57.8494C37.6893 58.0637 37.9787 58.1848 38.2809 58.1861C38.3871 58.1849 38.4926 58.1695 38.5948 58.1404L49.8941 54.9161C50.0797 54.8622 50.2486 54.7621 50.3849 54.6251L68.1444 36.8656C68.3569 36.6518 68.4762 36.3625 68.4762 36.061C68.4762 35.7594 68.3569 35.4702 68.1444 35.2563V35.2335ZM39.9473 55.3555L42.0816 47.8968L47.406 53.2212L39.9473 55.3555ZM49.586 52.1769L43.1202 45.7225L59.2646 29.5838L65.719 36.0381L49.586 52.1769Z" fill="black"/>
<path d="M41.4251 31.4158L29.9032 42.9377L22.4844 35.519C22.2669 35.3226 21.9823 35.2174 21.6894 35.2251C21.3965 35.2329 21.1178 35.3529 20.911 35.5605C20.7042 35.768 20.5851 36.0471 20.5784 36.34C20.5717 36.6329 20.6779 36.9172 20.8751 37.134L29.1042 45.3574C29.3181 45.57 29.6073 45.6893 29.9089 45.6893C30.2104 45.6893 30.4997 45.57 30.7135 45.3574L43.0401 33.0308C43.2372 32.8141 43.3434 32.5298 43.3367 32.2369C43.3301 31.944 43.211 31.6648 43.0042 31.4573C42.7974 31.2498 42.5187 31.1297 42.2258 31.122C41.9329 31.1143 41.6483 31.2195 41.4308 31.4158H41.4251Z" fill="black"/>
<path d="M51.3614 57.0676C51.0587 57.0676 50.7683 57.1879 50.5543 57.4019C50.3403 57.616 50.22 57.9063 50.22 58.209V61.633H13.6968V13.6963H39.4742L50.22 24.4421V29.6752C50.22 29.9779 50.3403 30.2682 50.5543 30.4823C50.7683 30.6963 51.0587 30.8165 51.3614 30.8165C51.6641 30.8165 51.9544 30.6963 52.1684 30.4823C52.3825 30.2682 52.5027 29.9779 52.5027 29.6752V23.9684C52.5014 23.6662 52.3804 23.3768 52.166 23.1638L40.7525 11.7503C40.5394 11.5359 40.2501 11.4148 39.9478 11.4136H12.5554C12.2527 11.4136 11.9624 11.5338 11.7484 11.7479C11.5343 11.9619 11.4141 12.2522 11.4141 12.5549V62.7744C11.4141 63.0771 11.5343 63.3674 11.7484 63.5814C11.9624 63.7955 12.2527 63.9157 12.5554 63.9157H51.3614C51.6641 63.9157 51.9544 63.7955 52.1684 63.5814C52.3825 63.3674 52.5027 63.0771 52.5027 62.7744V58.209C52.5027 57.9063 52.3825 57.616 52.1684 57.4019C51.9544 57.1879 51.6641 57.0676 51.3614 57.0676Z" fill="black"/>
</svg>
