<svg width="63" height="63" viewBox="0 0 63 63" fill="none" xmlns="http://www.w3.org/2000/svg">
<path d="M51.1875 27.2241V51.1875C51.1875 52.7539 50.5652 54.2562 49.4576 55.3639C48.35 56.4715 46.8477 57.0937 45.2812 57.0938H17.7188C16.1523 57.0937 14.65 56.4715 13.5424 55.3639C12.4348 54.2562 11.8125 52.7539 11.8125 51.1875V11.8125C11.8125 10.2461 12.4348 8.74379 13.5424 7.63615C14.65 6.52851 16.1523 5.90625 17.7188 5.90625H29.8696C30.9136 5.90641 31.9147 6.32111 32.6529 7.0592L50.0346 24.4408C50.7726 25.1791 51.1873 26.1802 51.1875 27.2241Z" stroke="black" stroke-width="2.5" stroke-linejoin="round"/>
<path d="M31.5 6.89062V21.6562C31.5 22.7005 31.9148 23.7021 32.6533 24.4405C33.3917 25.1789 34.3932 25.5938 35.4375 25.5938H50.2031M21.6562 35.4375H41.3438M21.6562 45.2812H41.3438" stroke="black" stroke-width="2.5" stroke-linecap="round" stroke-linejoin="round"/>
</svg>
