<svg width="55" height="53" viewBox="0 0 55 53" fill="none" xmlns="http://www.w3.org/2000/svg">
<g filter="url(#filter0_d_1052_72)">
<path d="M9.20967 44.1667C7.99634 44.1667 6.96356 43.7406 6.11134 42.8884C5.25912 42.0362 4.83301 41.0043 4.83301 39.7927V5.20733C4.83301 3.99761 5.25912 2.96574 6.11134 2.11171C6.96356 1.25949 7.99634 0.833374 9.20967 0.833374H43.7924C44.2564 0.833374 44.6988 0.901986 45.1195 1.03921C45.5402 1.17643 45.9256 1.38226 46.2759 1.65671L44.028 3.90462C43.9233 3.80171 43.7924 3.71504 43.6353 3.64462C43.4782 3.57421 43.2959 3.5399 43.0882 3.54171H9.20697C8.72127 3.54171 8.32224 3.69789 8.00988 4.01025C7.69752 4.32261 7.54134 4.72254 7.54134 5.21004V39.7927C7.54134 40.2784 7.69752 40.6775 8.00988 40.9898C8.32224 41.3022 8.72217 41.4584 9.20967 41.4584H43.7924C44.2781 41.4584 44.6771 41.3022 44.9895 40.9898C45.3018 40.6775 45.458 40.2775 45.458 39.79V21.525L48.1663 18.8167V39.7955C48.1663 41.0052 47.7402 42.0371 46.888 42.8911C46.0358 43.7433 45.0039 44.1694 43.7924 44.1694L9.20967 44.1667ZM25.2132 34.1134L12.8795 21.7823L14.797 19.8648L25.2647 30.3325L49.0709 6.52629L50.9532 8.37608L25.2132 34.1134Z" fill="black"/>
</g>
<defs>
<filter id="filter0_d_1052_72" x="0.833008" y="0.833374" width="54.1201" height="51.3361" filterUnits="userSpaceOnUse" color-interpolation-filters="sRGB">
<feFlood flood-opacity="0" result="BackgroundImageFix"/>
<feColorMatrix in="SourceAlpha" type="matrix" values="0 0 0 0 0 0 0 0 0 0 0 0 0 0 0 0 0 0 127 0" result="hardAlpha"/>
<feOffset dy="4"/>
<feGaussianBlur stdDeviation="2"/>
<feComposite in2="hardAlpha" operator="out"/>
<feColorMatrix type="matrix" values="0 0 0 0 0 0 0 0 0 0 0 0 0 0 0 0 0 0 0.25 0"/>
<feBlend mode="normal" in2="BackgroundImageFix" result="effect1_dropShadow_1052_72"/>
<feBlend mode="normal" in="SourceGraphic" in2="effect1_dropShadow_1052_72" result="shape"/>
</filter>
</defs>
</svg>
