<svg width="77" height="75" viewBox="0 0 77 75" fill="none" xmlns="http://www.w3.org/2000/svg">
<path fill-rule="evenodd" clip-rule="evenodd" d="M21.392 42.3329C21.392 42.8569 20.9655 43.2827 20.4404 43.2827C19.9154 43.2827 19.4888 42.857 19.4888 42.3329C19.4888 39.5655 21.7365 37.3221 24.5093 37.3221C27.2819 37.3221 29.5297 39.5655 29.5297 42.3329C29.5297 45.6598 27.4788 45.93 26.1828 47.412C25.3433 48.419 25.4609 49.3961 25.4609 50.6188C25.4609 51.1428 25.0343 51.5686 24.5093 51.5686C23.9843 51.5686 23.5577 51.1428 23.5577 50.6188C23.5577 49.5981 23.4948 48.7329 23.8366 47.7476C24.0253 47.1881 24.3206 46.6723 24.7253 46.1892C26.0542 44.6254 27.6238 44.5326 27.6238 42.3329C27.6238 39.5737 24.2632 38.1817 22.3108 40.1386C21.7503 40.6981 21.4002 41.4814 21.4002 42.3329L21.392 42.3329ZM23.5495 54.7701C23.5495 54.2461 23.976 53.8203 24.5011 53.8203C25.0261 53.8203 25.4527 54.2406 25.4527 54.7919C25.4527 55.3432 25.0261 55.7417 24.5011 55.7417C23.976 55.7417 23.5495 55.3214 23.5495 54.7701ZM27.1972 32.5514H38.9713C40.6448 32.5514 42.0011 33.9133 42.0011 35.5754V41.5769H45.3671C45.605 41.5769 45.8511 41.667 46.0316 41.8498L53.7233 49.4095V42.5264C53.7233 42.0024 54.1499 41.5766 54.6749 41.5766H66.3511C67.3027 41.5766 68.0875 40.7934 68.0875 39.8436L68.0902 11.5143C68.0902 10.5645 67.3055 9.78121 66.3539 9.78121H28.9249C27.9733 9.78121 27.1886 10.5645 27.1886 11.5143V32.5508L27.1972 32.5514ZM38.9713 60.5125C40.6448 60.5125 42.0011 59.1507 42.0011 57.4886V43.4878H44.9761L54.0133 52.3603C54.6094 52.9471 55.6293 52.5268 55.6293 51.6834V43.488H66.3535C68.3551 43.488 69.993 41.8532 69.993 39.8554V11.5156C69.993 9.51782 68.3551 7.88306 66.3535 7.88306H28.9246C26.923 7.88306 25.2851 9.51782 25.2851 11.5156V32.5521H10.0297C8.35627 32.5521 7 33.914 7 35.5761V57.481C7 59.1513 8.36446 60.505 10.0297 60.505H18.1072V66.6266C18.1072 67.4726 19.1298 67.8902 19.7232 67.3034L26.6467 60.5049H38.9683L38.9713 60.5125ZM26.2591 58.6048H38.9629C39.5782 58.6048 40.0841 58.1026 40.0841 57.4858V35.5808C40.0841 34.9668 39.581 34.4618 38.9629 34.4618L10.0301 34.4646C9.41482 34.4646 8.90893 34.9667 8.90893 35.5836V57.4885C8.90893 58.1026 9.41207 58.6075 10.0301 58.6075H19.0588C19.6057 58.6075 20.0377 59.0469 20.0104 59.6419V64.3662L25.5887 58.8804C25.7719 58.6976 26.0152 58.6075 26.2531 58.6075L26.2591 58.6048ZM32.9284 18.1171C32.4034 18.1171 31.9768 17.6914 31.9768 17.1673C31.9768 16.6433 32.4033 16.2175 32.9284 16.2175H62.3562C62.8812 16.2175 63.3077 16.6433 63.3077 17.1673C63.3077 17.6914 62.8812 18.1171 62.3562 18.1171H32.9284ZM39.2503 26.4523C38.7253 26.4523 38.2987 26.0266 38.2987 25.5026C38.2987 24.9785 38.7253 24.5528 39.2503 24.5528H62.3591C62.8841 24.5528 63.3107 24.9785 63.3107 25.5026C63.3107 26.0266 62.8841 26.4523 62.3591 26.4523H39.2503ZM45.5723 34.7876C45.0472 34.7876 44.6207 34.3618 44.6207 33.8378C44.6207 33.3138 45.0472 32.888 45.5723 32.888H62.3585C62.8835 32.888 63.3101 33.3138 63.3101 33.8378C63.3101 34.3618 62.8835 34.7876 62.3585 34.7876H45.5723Z" fill="black"/>
</svg>
