<svg width="27" height="27" viewBox="0 0 27 27" fill="none" xmlns="http://www.w3.org/2000/svg">
<path d="M13.5 2.29541C7.3125 2.29541 2.25 7.34666 2.25 13.5679C2.25 19.1929 6.3675 23.8617 11.745 24.7054V16.8304H8.8875V13.5679H11.745V11.0817C11.745 8.25791 13.4213 6.70541 15.9975 6.70541C17.2238 6.70541 18.5063 6.91916 18.5063 6.91916V9.69791H17.0887C15.6937 9.69791 15.255 10.5642 15.255 11.4529V13.5679H18.3825L17.8763 16.8304H15.255V24.7054C17.906 24.2867 20.32 22.9341 22.0612 20.8917C23.8024 18.8493 24.756 16.2518 24.75 13.5679C24.75 7.34666 19.6875 2.29541 13.5 2.29541Z" fill="#FAFAFA"/>
</svg>
