<svg width="27" height="27" viewBox="0 0 27 27" fill="none" xmlns="http://www.w3.org/2000/svg">
<mask id="mask0_1092_1368" style="mask-type:luminance" maskUnits="userSpaceOnUse" x="0" y="0" width="27" height="27">
<path d="M27 0H0V27H27V0Z" fill="white"/>
</mask>
<g mask="url(#mask0_1092_1368)">
<path d="M16.0036 13.6327C16.0036 14.102 15.8645 14.5608 15.6037 14.951C15.343 15.3412 14.9724 15.6454 14.5388 15.825C14.1052 16.0046 13.6281 16.0516 13.1678 15.96C12.7075 15.8684 12.2847 15.6424 11.9528 15.3106C11.621 14.9787 11.395 14.5559 11.3034 14.0956C11.2118 13.6353 11.2588 13.1582 11.4384 12.7246C11.618 12.291 11.9222 11.9204 12.3124 11.6597C12.7026 11.3989 13.1614 11.2598 13.6307 11.2598C14.2601 11.2598 14.8636 11.5098 15.3086 11.9548C15.7536 12.3998 16.0036 13.0033 16.0036 13.6327Z" fill="white"/>
<path d="M19.1824 9.43608C19.064 9.12914 18.8826 8.85038 18.65 8.61775C18.4173 8.38511 18.1386 8.20374 17.8316 8.08531C17.4084 7.92843 16.9614 7.84546 16.5102 7.84C15.7596 7.80605 15.5343 7.79834 13.6335 7.79834C11.7327 7.79834 11.5075 7.80528 10.7569 7.84C10.3056 7.8455 9.85857 7.92848 9.43538 8.08531C9.12832 8.20369 8.84945 8.38504 8.61668 8.61768C8.38391 8.85031 8.2024 9.12909 8.08384 9.43608C7.92691 9.85951 7.84394 10.3068 7.83853 10.7583C7.80459 11.5089 7.79688 11.7342 7.79688 13.635C7.79688 15.5358 7.80459 15.761 7.83853 16.5116C7.84398 16.9629 7.92695 17.4099 8.08384 17.8331C8.20228 18.14 8.38365 18.4188 8.61628 18.6514C8.84892 18.8841 9.12768 19.0654 9.43462 19.1839C9.85802 19.3409 10.3053 19.4239 10.7569 19.4292C11.5075 19.4631 11.7327 19.4708 13.6335 19.4708C15.5343 19.4708 15.7596 19.4639 16.5102 19.4292C16.9617 19.4239 17.409 19.3409 17.8324 19.1839C18.1393 19.0654 18.4181 18.8841 18.6507 18.6514C18.8834 18.4188 19.0647 18.14 19.1832 17.8331C19.34 17.4099 19.423 16.9629 19.4285 16.5116C19.4624 15.761 19.4701 15.5358 19.4701 13.635C19.4701 11.7342 19.4632 11.5089 19.4285 10.7583C19.4229 10.3067 19.3397 9.85943 19.1824 9.43608ZM13.6327 17.29C12.9097 17.29 12.2029 17.0756 11.6017 16.6739C11.0005 16.2722 10.5319 15.7012 10.2552 15.0332C9.97852 14.3652 9.90611 13.6301 10.0472 12.921C10.1882 12.2118 10.5364 11.5604 11.0477 11.0492C11.559 10.5379 12.2104 10.1897 12.9195 10.0486C13.6287 9.90758 14.3637 9.97998 15.0317 10.2567C15.6998 10.5334 16.2707 11.002 16.6724 11.6031C17.0741 12.2043 17.2885 12.9111 17.2885 13.6342C17.2885 14.1143 17.194 14.5897 17.0103 15.0332C16.8265 15.4768 16.5573 15.8798 16.2178 16.2192C15.8783 16.5587 15.4753 16.828 15.0317 17.0117C14.5882 17.1954 14.1128 17.29 13.6327 17.29ZM17.4328 10.6889C17.2639 10.6889 17.0988 10.6388 16.9583 10.545C16.8179 10.4511 16.7085 10.3178 16.6438 10.1617C16.5792 10.0057 16.5623 9.83397 16.5952 9.66831C16.6282 9.50266 16.7095 9.3505 16.8289 9.23107C16.9484 9.11164 17.1005 9.0303 17.2662 8.99735C17.4318 8.9644 17.6035 8.98131 17.7596 9.04594C17.9156 9.11058 18.049 9.22003 18.1428 9.36047C18.2367 9.5009 18.2868 9.66601 18.2868 9.83491C18.2865 10.0613 18.1965 10.2783 18.0364 10.4383C17.8762 10.5982 17.6591 10.6889 17.4328 10.6889Z" fill="white"/>
<path d="M13.6304 1.54297C11.239 1.54297 8.90125 2.25212 6.91283 3.58073C4.92442 4.90935 3.37464 6.79776 2.45947 9.00717C1.5443 11.2166 1.30485 13.6478 1.7714 15.9932C2.23795 18.3387 3.38954 20.4932 5.08055 22.1842C6.77156 23.8752 8.92603 25.0268 11.2715 25.4934C13.617 25.9599 16.0482 25.7205 18.2576 24.8053C20.467 23.8901 22.3554 22.3404 23.684 20.3519C25.0127 18.3635 25.7218 16.0258 25.7218 13.6343C25.7214 10.4276 24.4474 7.35238 22.1799 5.0849C19.9124 2.81742 16.8371 1.54338 13.6304 1.54297ZM20.5316 16.4963C20.5203 17.0724 20.4113 17.6423 20.2092 18.1819C20.0307 18.6431 19.7578 19.0618 19.4081 19.4113C19.0583 19.7609 18.6393 20.0334 18.178 20.2115C17.6384 20.4135 17.0685 20.5225 16.4924 20.534C15.7519 20.5679 15.5158 20.5757 13.6297 20.5757C11.7435 20.5757 11.5075 20.5672 10.7669 20.534C10.1914 20.5224 9.62198 20.4133 9.08287 20.2115C8.62165 20.0332 8.20278 19.7605 7.85313 19.4109C7.50348 19.0612 7.23076 18.6424 7.05247 18.1811C6.85038 17.6416 6.74135 17.0716 6.73001 16.4956C6.69607 15.755 6.68758 15.5182 6.68758 13.6328C6.68758 11.7474 6.6953 11.5106 6.72924 10.77C6.74058 10.194 6.84961 9.62402 7.0517 9.08445C7.23038 8.62364 7.50325 8.20518 7.85286 7.85583C8.20248 7.50648 8.62114 7.23393 9.0821 7.0556C9.6217 6.85364 10.1916 6.74461 10.7677 6.73314C11.5082 6.6992 11.7443 6.69148 13.6304 6.69148C15.5166 6.69148 15.7526 6.69997 16.4932 6.73391C17.0692 6.74541 17.6392 6.85444 18.1788 7.05637C18.6396 7.23475 19.0582 7.50743 19.4075 7.85694C19.7569 8.20644 20.0294 8.62507 20.2076 9.086C20.41 9.62551 20.5193 10.1955 20.5309 10.7716C20.5648 11.5121 20.5725 11.7482 20.5725 13.6343C20.5725 15.5205 20.5656 15.7565 20.5316 16.4963Z" fill="white"/>
<path d="M13.6304 1.54297C11.239 1.54297 8.90125 2.25212 6.91283 3.58073C4.92442 4.90935 3.37464 6.79776 2.45947 9.00717C1.5443 11.2166 1.30485 13.6478 1.7714 15.9932C2.23795 18.3387 3.38954 20.4932 5.08055 22.1842C6.77156 23.8752 8.92603 25.0268 11.2715 25.4934C13.617 25.9599 16.0482 25.7205 18.2576 24.8053C20.467 23.8901 22.3554 22.3404 23.684 20.3519C25.0127 18.3635 25.7218 16.0258 25.7218 13.6343C25.7214 10.4276 24.4474 7.35238 22.1799 5.0849C19.9124 2.81742 16.8371 1.54338 13.6304 1.54297ZM20.5316 16.4963C20.5203 17.0724 20.4113 17.6423 20.2092 18.1819C20.0307 18.6431 19.7578 19.0618 19.4081 19.4113C19.0583 19.7609 18.6393 20.0334 18.178 20.2115C17.6384 20.4135 17.0685 20.5225 16.4924 20.534C15.7519 20.5679 15.5158 20.5757 13.6297 20.5757C11.7435 20.5757 11.5075 20.5672 10.7669 20.534C10.1914 20.5224 9.62198 20.4133 9.08287 20.2115C8.62165 20.0332 8.20278 19.7605 7.85313 19.4109C7.50348 19.0612 7.23076 18.6424 7.05247 18.1811C6.85038 17.6416 6.74135 17.0716 6.73001 16.4956C6.69607 15.755 6.68758 15.5182 6.68758 13.6328C6.68758 11.7474 6.6953 11.5106 6.72924 10.77C6.74058 10.194 6.84961 9.62402 7.0517 9.08445C7.23038 8.62364 7.50325 8.20518 7.85286 7.85583C8.20248 7.50648 8.62114 7.23393 9.0821 7.0556C9.6217 6.85364 10.1916 6.74461 10.7677 6.73314C11.5082 6.6992 11.7443 6.69148 13.6304 6.69148C15.5166 6.69148 15.7526 6.69997 16.4932 6.73391C17.0692 6.74541 17.6392 6.85444 18.1788 7.05637C18.6396 7.23475 19.0582 7.50743 19.4075 7.85694C19.7569 8.20644 20.0294 8.62507 20.2076 9.086C20.41 9.62551 20.5193 10.1955 20.5309 10.7716C20.5648 11.5121 20.5725 11.7482 20.5725 13.6343C20.5725 15.5205 20.5656 15.7565 20.5316 16.4963Z" fill="white"/>
</g>
</svg>
