<svg width="69" height="69" viewBox="0 0 69 69" fill="none" xmlns="http://www.w3.org/2000/svg">
<rect x="-1" y="1" width="67" height="67" rx="33.5" transform="matrix(-1 0 0 1 67 0)" stroke="black" stroke-width="2"/>
<path d="M32.3092 43.355L23.5 34.5L32.3092 25.645C32.3887 25.5405 32.4898 25.4544 32.6056 25.3923C32.7213 25.3303 32.849 25.2939 32.9801 25.2856C33.1111 25.2772 33.2425 25.2971 33.3652 25.3439C33.4878 25.3907 33.5991 25.4633 33.6912 25.5568C33.7834 25.6503 33.8545 25.7626 33.8995 25.8859C33.9445 26.0093 33.9626 26.1409 33.9523 26.2718C33.9421 26.4027 33.9039 26.5299 33.8402 26.6448C33.7765 26.7596 33.6889 26.8594 33.5833 26.9375L26.9925 33.5833L44.5283 33.5833C44.7714 33.5833 45.0046 33.6799 45.1765 33.8518C45.3484 34.0237 45.445 34.2569 45.445 34.5C45.445 34.7431 45.3484 34.9763 45.1765 35.1482C45.0046 35.3201 44.7714 35.4167 44.5283 35.4167L26.9925 35.4167L33.5833 42.0625C33.7547 42.2351 33.8505 42.4687 33.8497 42.712C33.8488 42.9552 33.7514 43.1882 33.5788 43.3596C33.4061 43.531 33.1725 43.6268 32.9293 43.6259C32.686 43.6251 32.4531 43.5276 32.2817 43.355L32.3092 43.355Z" fill="black"/>
</svg>
