<svg width="27" height="27" viewBox="0 0 27 27" fill="none" xmlns="http://www.w3.org/2000/svg">
<g clip-path="url(#clip0_1092_1380)">
<path d="M13.4991 0.540527C6.34136 0.540527 0.539062 6.34283 0.539062 13.5005C0.539062 20.6582 6.34136 26.4605 13.4991 26.4605C20.6568 26.4605 26.4591 20.6582 26.4591 13.5005C26.4591 6.34283 20.6568 0.540527 13.4991 0.540527ZM10.3266 18.8722H7.70216V10.4266H10.3266V18.8722ZM8.99816 9.38978C8.16926 9.38978 7.63331 8.80253 7.63331 8.07623C7.63331 7.33508 8.18546 6.76538 9.03191 6.76538C9.87836 6.76538 10.3968 7.33508 10.413 8.07623C10.413 8.80253 9.87836 9.38978 8.99816 9.38978ZM19.9116 18.8722H17.2872V14.1917C17.2872 13.1023 16.9065 12.3625 15.9574 12.3625C15.2325 12.3625 14.8018 12.8633 14.6115 13.3453C14.5413 13.5167 14.5237 13.7597 14.5237 14.0014V18.8708H11.898V13.1198C11.898 12.0655 11.8642 11.1839 11.8291 10.4252H14.1093L14.2294 11.5984H14.2821C14.6277 11.0476 15.4741 10.2349 16.8903 10.2349C18.6169 10.2349 19.9116 11.3918 19.9116 13.8785V18.8722Z" fill="#FAFAFA"/>
</g>
<defs>
<clipPath id="clip0_1092_1380">
<rect width="27" height="27" fill="white"/>
</clipPath>
</defs>
</svg>
