<svg width="1366" height="434" viewBox="0 0 1366 434" fill="none" xmlns="http://www.w3.org/2000/svg">
<path d="M0 2L149.718 2L172.153 42.8071L149.718 83.6142H0V2Z" fill="#762455"/>
<path d="M156.523 2.00003L427.499 2L449.639 43.2412L427.499 83.6142H156.523L178.229 42.8071L156.523 2.00003Z" fill="#762455"/>
<path d="M0 119H149.718L172.153 159.807L149.718 200.614H0V119Z" fill="#762455"/>
<path d="M156.523 119L427.499 119L449.639 160.241L427.499 200.614H156.523L178.229 159.807L156.523 119Z" fill="#762455"/>
<path d="M810.578 118.646H1015.48L1070.18 217.625L1015.48 316.604H810.578L864.843 217.625L810.578 118.646Z" fill="#F58121"/>
<path d="M433.766 2.30228L718.981 2.30225L741.121 43.5435L718.981 83.9165H433.766L455.472 43.1094L433.766 2.30228Z" fill="#5C1C42"/>
<path d="M1054.55 176.818L1157.44 176.818L1179.58 218.059L1157.44 258.432H1054.55L1076.26 217.625L1054.55 176.818Z" fill="#F58121"/>
<path d="M1163.95 176.818H1365.5V218.059V258.432L1163.95 258.432L1185.66 217.625L1163.95 176.818Z" fill="#F58121"/>
<path d="M433.766 118.646L718.981 118.646L741.121 159.887L718.981 200.26H433.766L455.472 159.453L433.766 118.646Z" fill="#5C1C42"/>
<path d="M896.767 189.058H889.043L887.849 193.531H885.209L890.155 174.416H895.656L900.601 193.531H897.962L896.767 189.058ZM889.599 186.696H896.211L893.628 176.666H892.183L889.599 186.696ZM907.621 193.836C906.547 193.836 905.148 193.688 903.426 193.392L902.592 193.253L902.703 191.03C904.944 191.345 906.547 191.503 907.51 191.503C908.491 191.503 909.232 191.354 909.732 191.058C910.233 190.762 910.483 190.28 910.483 189.613C910.483 189.132 910.353 188.771 910.094 188.53C909.853 188.27 909.538 188.085 909.149 187.974C908.76 187.844 908.204 187.724 907.482 187.613L906.815 187.502C905.759 187.335 904.917 187.122 904.287 186.863C903.676 186.603 903.203 186.224 902.87 185.724C902.537 185.223 902.37 184.538 902.37 183.668C902.37 180.797 904.129 179.361 907.649 179.361C908.76 179.361 910.149 179.5 911.816 179.778L912.622 179.945L912.566 182.112C910.492 181.815 908.899 181.667 907.788 181.667C905.898 181.667 904.954 182.241 904.954 183.39C904.954 183.816 905.074 184.149 905.315 184.39C905.556 184.612 905.861 184.779 906.232 184.89C906.621 185.001 907.167 185.122 907.871 185.251C908.001 185.27 908.26 185.316 908.649 185.39C909.742 185.594 910.594 185.835 911.205 186.113C911.835 186.372 912.298 186.761 912.594 187.279C912.909 187.798 913.066 188.502 913.066 189.391C913.066 190.928 912.622 192.058 911.733 192.781C910.844 193.484 909.473 193.836 907.621 193.836ZM920.59 193.836C919.516 193.836 918.117 193.688 916.395 193.392L915.561 193.253L915.672 191.03C917.914 191.345 919.516 191.503 920.479 191.503C921.461 191.503 922.202 191.354 922.702 191.058C923.202 190.762 923.452 190.28 923.452 189.613C923.452 189.132 923.322 188.771 923.063 188.53C922.822 188.27 922.507 188.085 922.118 187.974C921.729 187.844 921.174 187.724 920.451 187.613L919.784 187.502C918.729 187.335 917.886 187.122 917.256 186.863C916.645 186.603 916.173 186.224 915.839 185.724C915.506 185.223 915.339 184.538 915.339 183.668C915.339 180.797 917.099 179.361 920.618 179.361C921.729 179.361 923.118 179.5 924.785 179.778L925.591 179.945L925.536 182.112C923.461 181.815 921.868 181.667 920.757 181.667C918.868 181.667 917.923 182.241 917.923 183.39C917.923 183.816 918.043 184.149 918.284 184.39C918.525 184.612 918.831 184.779 919.201 184.89C919.59 185.001 920.136 185.122 920.84 185.251C920.97 185.27 921.229 185.316 921.618 185.39C922.711 185.594 923.563 185.835 924.174 186.113C924.804 186.372 925.267 186.761 925.563 187.279C925.878 187.798 926.036 188.502 926.036 189.391C926.036 190.928 925.591 192.058 924.702 192.781C923.813 193.484 922.442 193.836 920.59 193.836ZM929.059 179.639H931.642V193.531H929.059V179.639ZM929.059 174.11H931.615V176.916H929.059V174.11ZM939.963 193.836C938.888 193.836 937.49 193.688 935.767 193.392L934.934 193.253L935.045 191.03C937.286 191.345 938.888 191.503 939.852 191.503C940.833 191.503 941.574 191.354 942.074 191.058C942.574 190.762 942.824 190.28 942.824 189.613C942.824 189.132 942.695 188.771 942.435 188.53C942.195 188.27 941.88 188.085 941.491 187.974C941.102 187.844 940.546 187.724 939.824 187.613L939.157 187.502C938.101 187.335 937.258 187.122 936.629 186.863C936.017 186.603 935.545 186.224 935.212 185.724C934.878 185.223 934.712 184.538 934.712 183.668C934.712 180.797 936.471 179.361 939.99 179.361C941.102 179.361 942.491 179.5 944.158 179.778L944.964 179.945L944.908 182.112C942.834 181.815 941.241 181.667 940.129 181.667C938.24 181.667 937.295 182.241 937.295 183.39C937.295 183.816 937.416 184.149 937.657 184.39C937.897 184.612 938.203 184.779 938.574 184.89C938.962 185.001 939.509 185.122 940.213 185.251C940.342 185.27 940.602 185.316 940.991 185.39C942.083 185.594 942.936 185.835 943.547 186.113C944.177 186.372 944.64 186.761 944.936 187.279C945.251 187.798 945.408 188.502 945.408 189.391C945.408 190.928 944.964 192.058 944.075 192.781C943.186 193.484 941.815 193.836 939.963 193.836ZM952.932 193.836C951.95 193.836 951.182 193.679 950.626 193.364C950.089 193.049 949.7 192.521 949.459 191.78C949.218 191.04 949.098 190.012 949.098 188.696V181.862H947.236V179.639H949.098V175.499H951.682V179.639H955.766V181.862H951.682V188.224C951.682 189.095 951.709 189.752 951.765 190.197C951.839 190.623 951.997 190.956 952.237 191.197C952.478 191.419 952.867 191.53 953.404 191.53L955.766 191.391L955.933 193.503C954.636 193.725 953.636 193.836 952.932 193.836ZM961.447 193.836C960.132 193.836 959.131 193.466 958.446 192.725C957.761 191.984 957.418 190.919 957.418 189.53C957.418 188.159 957.77 187.159 958.474 186.529C959.178 185.881 960.298 185.483 961.836 185.335L965.781 184.973V183.89C965.781 183.075 965.605 182.491 965.253 182.14C964.901 181.769 964.383 181.584 963.697 181.584C962.141 181.584 960.345 181.695 958.307 181.917L958.224 180.028C960.187 179.565 962.012 179.333 963.697 179.333C965.327 179.333 966.513 179.704 967.254 180.445C967.994 181.167 968.365 182.315 968.365 183.89V190.586C968.402 190.956 968.522 191.243 968.726 191.447C968.948 191.632 969.291 191.762 969.754 191.836L969.671 193.836C968.874 193.836 968.198 193.744 967.642 193.559C967.087 193.392 966.596 193.123 966.17 192.753C964.596 193.475 963.021 193.836 961.447 193.836ZM961.919 191.669C963.049 191.669 964.142 191.493 965.198 191.141L965.781 190.947V186.863L962.169 187.196C961.447 187.27 960.91 187.492 960.558 187.863C960.224 188.215 960.058 188.743 960.058 189.447C960.058 190.928 960.678 191.669 961.919 191.669ZM972.308 179.639H974.864V180.556C975.66 180.111 976.382 179.796 977.031 179.611C977.679 179.426 978.364 179.333 979.087 179.333C980.254 179.333 981.17 179.565 981.837 180.028C982.504 180.491 982.976 181.213 983.254 182.195C983.532 183.158 983.671 184.473 983.671 186.14V193.531H981.087V186.196C981.087 185.029 981.013 184.131 980.865 183.501C980.735 182.853 980.476 182.39 980.087 182.112C979.716 181.815 979.17 181.667 978.448 181.667C977.466 181.667 976.438 181.88 975.364 182.306L974.891 182.528V193.531H972.308V179.639ZM991.813 193.836C990.831 193.836 990.062 193.679 989.507 193.364C988.969 193.049 988.581 192.521 988.34 191.78C988.099 191.04 987.979 190.012 987.979 188.696V181.862H986.117V179.639H987.979V175.499H990.562V179.639H994.647V181.862H990.562V188.224C990.562 189.095 990.59 189.752 990.646 190.197C990.72 190.623 990.877 190.956 991.118 191.197C991.359 191.419 991.748 191.53 992.285 191.53L994.647 191.391L994.813 193.503C993.517 193.725 992.517 193.836 991.813 193.836ZM922.994 227.836C921.013 227.836 919.494 227.475 918.438 226.753C917.382 226.012 916.651 224.947 916.243 223.558C915.854 222.15 915.66 220.298 915.66 218.001C915.66 215.63 915.863 213.741 916.271 212.333C916.678 210.925 917.391 209.87 918.41 209.166C919.447 208.462 920.911 208.11 922.8 208.11C924.337 208.11 926.115 208.332 928.134 208.777L928.051 210.972C926.291 210.657 924.717 210.499 923.328 210.499C921.939 210.499 920.892 210.749 920.188 211.25C919.484 211.731 919.012 212.518 918.771 213.611C918.531 214.704 918.419 216.288 918.438 218.362C918.438 220.159 918.549 221.548 918.771 222.53C919.012 223.493 919.484 224.225 920.188 224.725C920.911 225.206 922.003 225.447 923.467 225.447C924.689 225.447 926.217 225.29 928.051 224.975L928.134 227.225C926.097 227.633 924.384 227.836 922.994 227.836ZM931.328 207.749H933.912V227.531H931.328V207.749ZM942.307 227.836C941.103 227.836 940.177 227.614 939.529 227.17C938.88 226.707 938.427 225.984 938.167 225.002C937.908 224.002 937.778 222.632 937.778 220.89V213.639H940.362V220.89C940.362 222.169 940.427 223.132 940.557 223.78C940.686 224.41 940.927 224.854 941.279 225.114C941.649 225.373 942.205 225.503 942.946 225.503C943.557 225.503 944.131 225.428 944.669 225.28C945.224 225.132 945.817 224.919 946.447 224.641V213.639H949.031V227.531H946.447V226.614C945.669 227.058 944.965 227.373 944.335 227.559C943.724 227.744 943.048 227.836 942.307 227.836ZM957.757 227.809C956.498 227.809 955.155 227.735 953.728 227.586L952.867 227.503V207.749H955.451V214.25C956.155 213.935 956.803 213.704 957.396 213.556C958.007 213.407 958.665 213.333 959.369 213.333C960.591 213.333 961.563 213.574 962.286 214.056C963.027 214.537 963.564 215.306 963.897 216.362C964.249 217.399 964.425 218.788 964.425 220.529C964.425 222.4 964.212 223.863 963.786 224.919C963.379 225.956 962.693 226.697 961.73 227.142C960.785 227.586 959.461 227.809 957.757 227.809ZM957.84 225.503C958.896 225.503 959.702 225.345 960.258 225.03C960.832 224.697 961.23 224.178 961.452 223.474C961.675 222.752 961.786 221.761 961.786 220.502C961.786 219.279 961.684 218.325 961.48 217.64C961.295 216.936 960.98 216.436 960.535 216.14C960.109 215.825 959.517 215.667 958.757 215.667C957.831 215.667 956.729 215.889 955.451 216.334V225.364C956.655 225.456 957.451 225.503 957.84 225.503ZM911.767 243.416V262.531H909.099V246.305H908.683L903.709 261.781H900.875L895.874 246.305H895.485V262.531H892.818V243.416H897.486L902.292 259.002L907.071 243.416H911.767ZM919.093 262.836C917.778 262.836 916.778 262.466 916.092 261.725C915.407 260.984 915.064 259.919 915.064 258.53C915.064 257.159 915.416 256.159 916.12 255.529C916.824 254.881 917.945 254.483 919.482 254.335L923.427 253.973V252.89C923.427 252.075 923.251 251.491 922.899 251.14C922.548 250.769 922.029 250.584 921.344 250.584C919.788 250.584 917.991 250.695 915.954 250.917L915.87 249.028C917.834 248.565 919.658 248.333 921.344 248.333C922.974 248.333 924.159 248.704 924.9 249.445C925.641 250.167 926.011 251.315 926.011 252.89V259.586C926.048 259.956 926.169 260.243 926.372 260.447C926.595 260.632 926.937 260.762 927.4 260.836L927.317 262.836C926.521 262.836 925.845 262.744 925.289 262.559C924.733 262.392 924.242 262.123 923.816 261.753C922.242 262.475 920.668 262.836 919.093 262.836ZM919.565 260.669C920.695 260.669 921.788 260.493 922.844 260.141L923.427 259.947V255.863L919.815 256.196C919.093 256.27 918.556 256.492 918.204 256.863C917.871 257.215 917.704 257.743 917.704 258.447C917.704 259.928 918.324 260.669 919.565 260.669ZM929.954 248.639H932.51V249.556C933.306 249.111 934.029 248.796 934.677 248.611C935.325 248.426 936.011 248.333 936.733 248.333C937.9 248.333 938.817 248.565 939.484 249.028C940.15 249.491 940.623 250.213 940.901 251.195C941.178 252.158 941.317 253.473 941.317 255.14V262.531H938.733V255.196C938.733 254.029 938.659 253.131 938.511 252.501C938.382 251.853 938.122 251.39 937.733 251.112C937.363 250.815 936.816 250.667 936.094 250.667C935.112 250.667 934.084 250.88 933.01 251.306L932.538 251.528V262.531H929.954V248.639ZM948.152 262.836C946.837 262.836 945.837 262.466 945.151 261.725C944.466 260.984 944.123 259.919 944.123 258.53C944.123 257.159 944.475 256.159 945.179 255.529C945.883 254.881 947.003 254.483 948.541 254.335L952.486 253.973V252.89C952.486 252.075 952.31 251.491 951.958 251.14C951.606 250.769 951.088 250.584 950.402 250.584C948.846 250.584 947.05 250.695 945.012 250.917L944.929 249.028C946.892 248.565 948.717 248.333 950.402 248.333C952.032 248.333 953.218 248.704 953.959 249.445C954.7 250.167 955.07 251.315 955.07 252.89V259.586C955.107 259.956 955.227 260.243 955.431 260.447C955.653 260.632 955.996 260.762 956.459 260.836L956.376 262.836C955.579 262.836 954.903 262.744 954.348 262.559C953.792 262.392 953.301 262.123 952.875 261.753C951.301 262.475 949.726 262.836 948.152 262.836ZM948.624 260.669C949.754 260.669 950.847 260.493 951.903 260.141L952.486 259.947V255.863L948.874 256.196C948.152 256.27 947.615 256.492 947.263 256.863C946.929 257.215 946.763 257.743 946.763 258.447C946.763 259.928 947.383 260.669 948.624 260.669ZM964.236 269.004C962.198 269.004 960.707 268.699 959.763 268.087C958.837 267.495 958.374 266.495 958.374 265.087C958.374 264.29 958.522 263.651 958.818 263.17C959.133 262.707 959.698 262.16 960.513 261.531C960.217 261.327 959.994 261.058 959.846 260.725C959.716 260.391 959.652 260.04 959.652 259.669C959.652 259.41 959.707 259.141 959.818 258.863C959.948 258.567 960.226 258.058 960.652 257.335C959.244 256.594 958.54 255.214 958.54 253.195C958.54 249.973 960.346 248.361 963.958 248.361C964.81 248.361 965.755 248.482 966.792 248.722L971.015 248.611V250.751L968.542 250.667C968.839 251.001 969.052 251.371 969.181 251.779C969.311 252.167 969.376 252.677 969.376 253.307C969.376 254.955 968.931 256.141 968.042 256.863C967.172 257.567 965.801 257.919 963.93 257.919C963.375 257.919 962.921 257.882 962.569 257.808C962.273 258.511 962.124 259.021 962.124 259.336C962.124 259.78 962.3 260.067 962.652 260.197C963.023 260.327 963.588 260.391 964.347 260.391H965.32C966.616 260.41 967.653 260.512 968.431 260.697C969.209 260.882 969.811 261.262 970.237 261.836C970.663 262.392 970.876 263.207 970.876 264.281C970.876 265.911 970.348 267.106 969.293 267.865C968.255 268.625 966.57 269.004 964.236 269.004ZM963.986 255.89C964.986 255.89 965.699 255.677 966.125 255.251C966.57 254.825 966.792 254.122 966.792 253.14C966.792 252.177 966.57 251.482 966.125 251.056C965.681 250.63 964.968 250.417 963.986 250.417C962.986 250.417 962.254 250.639 961.791 251.084C961.346 251.51 961.124 252.205 961.124 253.168C961.124 254.131 961.346 254.825 961.791 255.251C962.254 255.677 962.986 255.89 963.986 255.89ZM964.458 266.865C965.847 266.865 966.82 266.68 967.375 266.309C967.95 265.957 968.237 265.346 968.237 264.476C968.237 263.957 968.126 263.568 967.903 263.309C967.7 263.068 967.385 262.901 966.959 262.809C966.533 262.735 965.903 262.688 965.069 262.67L962.236 262.503C961.735 262.892 961.393 263.244 961.208 263.559C961.022 263.874 960.93 264.253 960.93 264.698C960.93 265.494 961.198 266.05 961.735 266.365C962.273 266.698 963.18 266.865 964.458 266.865ZM978.726 262.836C976.596 262.836 975.077 262.29 974.169 261.197C973.262 260.086 972.808 258.335 972.808 255.946C972.808 253.371 973.29 251.464 974.253 250.223C975.234 248.963 976.744 248.333 978.782 248.333C982.56 248.333 984.449 250.482 984.449 254.779L984.283 256.668H975.42C975.438 257.669 975.568 258.447 975.809 259.002C976.049 259.539 976.438 259.928 976.976 260.169C977.513 260.41 978.272 260.53 979.254 260.53C979.828 260.53 980.476 260.521 981.199 260.503C981.921 260.466 982.569 260.419 983.144 260.364L983.921 260.28L983.977 262.281C981.81 262.651 980.06 262.836 978.726 262.836ZM981.865 254.64C981.865 253.14 981.625 252.075 981.143 251.445C980.68 250.815 979.893 250.5 978.782 250.5C977.615 250.5 976.763 250.834 976.225 251.501C975.688 252.149 975.41 253.195 975.392 254.64H981.865ZM987.529 248.639H990.085V250.389C991.733 249.334 993.363 248.648 994.975 248.333V250.945C994.252 251.093 993.502 251.297 992.724 251.556C991.946 251.816 991.298 252.066 990.779 252.306L990.113 252.612V262.531H987.529V248.639Z" fill="white"/>
<path d="M1105.96 228.566C1103.97 228.566 1102.46 228.205 1101.4 227.482C1100.34 226.741 1099.61 225.676 1099.21 224.287C1098.82 222.88 1098.62 221.027 1098.62 218.73C1098.62 216.36 1098.83 214.47 1099.23 213.063C1099.64 211.655 1100.35 210.599 1101.37 209.895C1102.41 209.191 1103.87 208.84 1105.76 208.84C1107.3 208.84 1109.08 209.062 1111.1 209.506L1111.01 211.701C1109.25 211.386 1107.68 211.229 1106.29 211.229C1104.9 211.229 1103.85 211.479 1103.15 211.979C1102.45 212.461 1101.97 213.248 1101.73 214.341C1101.49 215.434 1101.38 217.017 1101.4 219.092C1101.4 220.888 1101.51 222.278 1101.73 223.259C1101.97 224.222 1102.45 224.954 1103.15 225.454C1103.87 225.936 1104.97 226.176 1106.43 226.176C1107.65 226.176 1109.18 226.019 1111.01 225.704L1111.1 227.955C1109.06 228.362 1107.35 228.566 1105.96 228.566ZM1133.43 209.145V228.26H1130.77V212.035H1130.35L1125.38 227.51H1122.54L1117.54 212.035H1117.15V228.26H1114.48V209.145H1119.15L1123.96 224.732L1128.74 209.145H1133.43Z" fill="white"/>
<path d="M1219.7 228.566C1217.72 228.566 1216.2 228.205 1215.14 227.482C1214.09 226.741 1213.35 225.676 1212.95 224.287C1212.56 222.88 1212.36 221.027 1212.36 218.73C1212.36 216.36 1212.57 214.47 1212.98 213.063C1213.38 211.655 1214.1 210.599 1215.11 209.895C1216.15 209.191 1217.62 208.84 1219.5 208.84C1221.04 208.84 1222.82 209.062 1224.84 209.506L1224.76 211.701C1223 211.386 1221.42 211.229 1220.03 211.229C1218.64 211.229 1217.6 211.479 1216.89 211.979C1216.19 212.461 1215.72 213.248 1215.48 214.341C1215.24 215.434 1215.12 217.017 1215.14 219.092C1215.14 220.888 1215.25 222.278 1215.48 223.259C1215.72 224.222 1216.19 224.954 1216.89 225.454C1217.62 225.936 1218.71 226.176 1220.17 226.176C1221.39 226.176 1222.92 226.019 1224.76 225.704L1224.84 227.955C1222.8 228.362 1221.09 228.566 1219.7 228.566ZM1227.87 214.368H1230.45V228.26H1227.87V214.368ZM1227.87 208.84H1230.42V211.646H1227.87V208.84ZM1238.42 228.566C1237.44 228.566 1236.67 228.408 1236.11 228.094C1235.57 227.779 1235.19 227.251 1234.94 226.51C1234.7 225.769 1234.58 224.741 1234.58 223.426V216.591H1232.72V214.368H1234.58V210.229H1237.17V214.368H1241.25V216.591H1237.17V222.954C1237.17 223.824 1237.19 224.482 1237.25 224.926C1237.32 225.352 1237.48 225.686 1237.72 225.926C1237.96 226.149 1238.35 226.26 1238.89 226.26L1241.25 226.121L1241.42 228.232C1240.12 228.455 1239.12 228.566 1238.42 228.566ZM1248.52 228.26H1246.27L1242.49 214.368H1245.07L1248.24 226.038H1249.07L1252.27 214.368H1254.85L1249.35 234.317H1246.79L1248.52 228.26ZM1278.05 209.145V228.26H1275.41V219.842H1266.49V228.26H1263.82V209.145H1266.49V217.48H1275.41V209.145H1278.05ZM1287.38 228.566C1285.25 228.566 1283.73 228.019 1282.83 226.927C1281.92 225.815 1281.46 224.065 1281.46 221.676C1281.46 219.101 1281.95 217.193 1282.91 215.952C1283.89 214.693 1285.4 214.063 1287.44 214.063C1291.22 214.063 1293.11 216.211 1293.11 220.509L1292.94 222.398H1284.08C1284.09 223.398 1284.22 224.176 1284.46 224.732C1284.71 225.269 1285.09 225.658 1285.63 225.899C1286.17 226.139 1286.93 226.26 1287.91 226.26C1288.48 226.26 1289.13 226.251 1289.85 226.232C1290.58 226.195 1291.23 226.149 1291.8 226.093L1292.58 226.01L1292.63 228.01C1290.47 228.381 1288.72 228.566 1287.38 228.566ZM1290.52 220.37C1290.52 218.869 1290.28 217.804 1289.8 217.175C1289.34 216.545 1288.55 216.23 1287.44 216.23C1286.27 216.23 1285.42 216.563 1284.88 217.23C1284.34 217.878 1284.07 218.925 1284.05 220.37H1290.52ZM1299.32 228.566C1298.01 228.566 1297.01 228.195 1296.32 227.455C1295.64 226.714 1295.3 225.649 1295.3 224.259C1295.3 222.889 1295.65 221.889 1296.35 221.259C1297.06 220.611 1298.18 220.212 1299.71 220.064L1303.66 219.703V218.619C1303.66 217.804 1303.48 217.221 1303.13 216.869C1302.78 216.499 1302.26 216.313 1301.58 216.313C1300.02 216.313 1298.22 216.424 1296.19 216.647L1296.1 214.757C1298.07 214.294 1299.89 214.063 1301.58 214.063C1303.21 214.063 1304.39 214.433 1305.13 215.174C1305.87 215.897 1306.24 217.045 1306.24 218.619V225.315C1306.28 225.686 1306.4 225.973 1306.6 226.176C1306.83 226.362 1307.17 226.491 1307.63 226.565L1307.55 228.566C1306.75 228.566 1306.08 228.473 1305.52 228.288C1304.96 228.121 1304.47 227.853 1304.05 227.482C1302.47 228.205 1300.9 228.566 1299.32 228.566ZM1299.8 226.399C1300.93 226.399 1302.02 226.223 1303.08 225.871L1303.66 225.676V221.592L1300.05 221.926C1299.32 222 1298.79 222.222 1298.44 222.592C1298.1 222.944 1297.94 223.472 1297.94 224.176C1297.94 225.658 1298.56 226.399 1299.8 226.399ZM1314.58 228.566C1312.78 228.566 1311.49 227.992 1310.71 226.843C1309.94 225.676 1309.55 223.907 1309.55 221.537C1309.55 218.906 1310.01 217.008 1310.94 215.841C1311.86 214.656 1313.34 214.063 1315.38 214.063C1316.36 214.063 1317.45 214.193 1318.63 214.452V208.478H1321.22V228.26H1318.63V227.427C1317.19 228.186 1315.83 228.566 1314.58 228.566ZM1315.1 226.232C1315.55 226.232 1316.06 226.167 1316.63 226.038C1317.21 225.908 1317.71 225.76 1318.13 225.593L1318.63 225.399V216.647C1317.48 216.424 1316.5 216.313 1315.69 216.313C1314.41 216.313 1313.51 216.702 1312.99 217.48C1312.47 218.258 1312.21 219.564 1312.21 221.398C1312.21 223.065 1312.43 224.287 1312.85 225.065C1313.3 225.843 1314.05 226.232 1315.1 226.232Z" fill="white"/>
<path d="M0 234.989L149.718 234.989L172.153 275.796L149.718 316.603H0V234.989Z" fill="#762455"/>
<path d="M178 351.333H424.718L447.153 392.14L424.718 432.947H178V351.333Z" fill="#762455"/>
<path d="M156.523 234.989L427.499 234.989L449.639 276.231L427.499 316.603H156.523L178.229 275.796L156.523 234.989Z" fill="#762455"/>
<path d="M432.023 351.333H718.541L740.681 392.574L718.541 432.947L432.023 432.947L453.729 392.14L432.023 351.333Z" fill="#5C1C42"/>
<path d="M433.766 234.989L718.981 234.989L741.121 276.231L718.981 316.603H433.766L455.472 275.796L433.766 234.989Z" fill="#5C1C42"/>
<path d="M49.863 54.0502C47.8811 54.0502 46.3622 53.6891 45.3065 52.9667C44.2507 52.2258 43.519 51.1608 43.1116 49.7716C42.7226 48.3639 42.5281 46.5116 42.5281 44.2149C42.5281 41.844 42.7318 39.9547 43.1393 38.547C43.5468 37.1393 44.2599 36.0836 45.2787 35.3797C46.3159 34.6758 47.7792 34.3239 49.6685 34.3239C51.2058 34.3239 52.984 34.5462 55.0029 34.9907L54.9196 37.1856C53.1599 36.8708 51.5855 36.7133 50.1964 36.7133C48.8072 36.7133 47.7607 36.9634 47.0568 37.4635C46.353 37.945 45.8806 38.7322 45.6399 39.8251C45.3991 40.9179 45.2879 42.5016 45.3065 44.5761C45.3065 46.3727 45.4176 47.7619 45.6399 48.7436C45.8806 49.7068 46.353 50.4384 47.0568 50.9385C47.7792 51.4201 48.872 51.6609 50.3353 51.6609C51.5578 51.6609 53.0858 51.5034 54.9196 51.1885L55.0029 53.439C52.9655 53.8465 51.2521 54.0502 49.863 54.0502ZM63.6976 54.0225C62.4196 54.0225 60.697 53.8465 58.5299 53.4946L57.5297 53.3279L57.8075 51.1885C60.308 51.5219 62.2159 51.6886 63.5309 51.6886C66.0315 51.6886 67.2817 50.5495 67.2817 48.2713C67.2817 47.6415 67.1521 47.1414 66.8928 46.771C66.6334 46.382 66.2167 46.0764 65.6425 45.8541C65.0868 45.6133 64.2996 45.3818 63.2809 45.1595C61.7806 44.8076 60.6137 44.4186 59.7802 43.9926C58.9467 43.5481 58.3354 42.9831 57.9464 42.2978C57.5575 41.6125 57.363 40.7141 57.363 39.6028C57.363 37.8432 57.8909 36.5188 58.9467 35.6298C60.0024 34.7407 61.5583 34.2961 63.6143 34.2961C64.3737 34.2961 65.1887 34.3424 66.0592 34.4351C66.9483 34.5277 68.1152 34.6944 69.56 34.9352L69.3377 37.1023C66.8001 36.8059 64.9664 36.6577 63.8366 36.6577C61.299 36.6577 60.0302 37.5839 60.0302 39.4361C60.0302 40.1214 60.1691 40.6586 60.447 41.0475C60.7433 41.4365 61.2064 41.7607 61.8361 42.02C62.4659 42.2608 63.4198 42.5293 64.6979 42.8257C66.0315 43.1591 67.0687 43.5295 67.8096 43.937C68.5505 44.3445 69.0877 44.8724 69.4211 45.5207C69.773 46.169 69.9489 47.021 69.9489 48.0768C69.9489 50.0402 69.4118 51.5219 68.3375 52.5222C67.2817 53.5224 65.7351 54.0225 63.6976 54.0225ZM80.3391 54.0502C78.4313 54.0502 76.9217 53.7076 75.8104 53.0223C74.6991 52.3369 73.8933 51.2904 73.3932 49.8827C72.9117 48.4565 72.6709 46.5857 72.6709 44.2704C72.6709 41.9737 72.9117 40.1029 73.3932 38.6582C73.8933 37.1949 74.6991 36.1113 75.8104 35.4075C76.9403 34.6851 78.4498 34.3239 80.3391 34.3239C82.2284 34.3239 83.7287 34.6851 84.8401 35.4075C85.9699 36.1113 86.7756 37.1856 87.2572 38.6304C87.7573 40.0751 88.0074 41.9644 88.0074 44.2982C88.0074 46.6135 87.7666 48.475 87.285 49.8827C86.8034 51.2904 86.007 52.3369 84.8956 53.0223C83.7843 53.7076 82.2654 54.0502 80.3391 54.0502ZM80.3391 51.6886C81.6357 51.6886 82.6359 51.4479 83.3397 50.9663C84.0436 50.4662 84.5344 49.6882 84.8123 48.6325C85.1086 47.5767 85.2568 46.1319 85.2568 44.2982C85.2568 42.4645 85.1086 41.0012 84.8123 39.9084C84.5159 38.7971 84.0066 37.9821 83.2842 37.4635C82.5803 36.9263 81.5986 36.6577 80.3391 36.6577C79.0796 36.6577 78.0887 36.9263 77.3663 37.4635C76.6624 37.9821 76.1623 38.7878 75.866 39.8806C75.5696 40.9735 75.4214 42.4367 75.4214 44.2704C75.4214 46.0671 75.5604 47.4933 75.8382 48.5491C76.1345 49.6049 76.6346 50.3921 77.3385 50.9107C78.0423 51.4293 79.0426 51.6886 80.3391 51.6886ZM92.8751 40.6308H90.8469L92.125 34.3239H94.82L92.8751 40.6308ZM103.392 54.0225C102.114 54.0225 100.392 53.8465 98.2246 53.4946L97.2244 53.3279L97.5022 51.1885C100.003 51.5219 101.911 51.6886 103.226 51.6886C105.726 51.6886 106.976 50.5495 106.976 48.2713C106.976 47.6415 106.847 47.1414 106.587 46.771C106.328 46.382 105.911 46.0764 105.337 45.8541C104.781 45.6133 103.994 45.3818 102.976 45.1595C101.475 44.8076 100.308 44.4186 99.4748 43.9926C98.6413 43.5481 98.0301 42.9831 97.6411 42.2978C97.2521 41.6125 97.0577 40.7141 97.0577 39.6028C97.0577 37.8432 97.5855 36.5188 98.6413 35.6298C99.6971 34.7407 101.253 34.2961 103.309 34.2961C104.068 34.2961 104.883 34.3424 105.754 34.4351C106.643 34.5277 107.81 34.6944 109.255 34.9352L109.032 37.1023C106.495 36.8059 104.661 36.6577 103.531 36.6577C100.994 36.6577 99.7249 37.5839 99.7249 39.4361C99.7249 40.1214 99.8638 40.6586 100.142 41.0475C100.438 41.4365 100.901 41.7607 101.531 42.02C102.161 42.2608 103.114 42.5293 104.393 42.8257C105.726 43.1591 106.763 43.5295 107.504 43.937C108.245 44.3445 108.782 44.8724 109.116 45.5207C109.468 46.169 109.644 47.021 109.644 48.0768C109.644 50.0402 109.106 51.5219 108.032 52.5222C106.976 53.5224 105.43 54.0225 103.392 54.0225Z" fill="white"/>
<path d="M264.717 54.0225C263.439 54.0225 261.717 53.8465 259.55 53.4946L258.55 53.3279L258.827 51.1885C261.328 51.5219 263.236 51.6886 264.551 51.6886C267.051 51.6886 268.302 50.5495 268.302 48.2713C268.302 47.6415 268.172 47.1414 267.913 46.771C267.653 46.382 267.237 46.0764 266.662 45.8541C266.107 45.6133 265.319 45.3818 264.301 45.1595C262.8 44.8076 261.634 44.4186 260.8 43.9926C259.966 43.5481 259.355 42.9831 258.966 42.2978C258.577 41.6125 258.383 40.7141 258.383 39.6028C258.383 37.8432 258.911 36.5188 259.966 35.6298C261.022 34.7407 262.578 34.2961 264.634 34.2961C265.394 34.2961 266.209 34.3424 267.079 34.4351C267.968 34.5277 269.135 34.6944 270.58 34.9352L270.358 37.1023C267.82 36.8059 265.986 36.6577 264.856 36.6577C262.319 36.6577 261.05 37.5839 261.05 39.4361C261.05 40.1214 261.189 40.6586 261.467 41.0475C261.763 41.4365 262.226 41.7607 262.856 42.02C263.486 42.2608 264.44 42.5293 265.718 42.8257C267.051 43.1591 268.089 43.5295 268.829 43.937C269.57 44.3445 270.107 44.8724 270.441 45.5207C270.793 46.169 270.969 47.021 270.969 48.0768C270.969 50.0402 270.432 51.5219 269.357 52.5222C268.302 53.5224 266.755 54.0225 264.717 54.0225ZM274.135 39.8529H276.691V41.6032C278.34 40.5474 279.97 39.8621 281.581 39.5472V42.1589C280.859 42.3071 280.109 42.5108 279.331 42.7701C278.553 43.0294 277.905 43.2795 277.386 43.5203L276.719 43.8259V53.7446H274.135V39.8529ZM282.326 50.1328H285.132V53.7446H282.326V50.1328ZM301.837 54.0502C299.855 54.0502 298.337 53.6891 297.281 52.9667C296.225 52.2258 295.493 51.1608 295.086 49.7716C294.697 48.3639 294.503 46.5116 294.503 44.2149C294.503 41.844 294.706 39.9547 295.114 38.547C295.521 37.1393 296.234 36.0836 297.253 35.3797C298.29 34.6758 299.754 34.3239 301.643 34.3239C303.18 34.3239 304.958 34.5462 306.977 34.9907L306.894 37.1856C305.134 36.8708 303.56 36.7133 302.171 36.7133C300.782 36.7133 299.735 36.9634 299.031 37.4635C298.327 37.945 297.855 38.7322 297.614 39.8251C297.374 40.9179 297.262 42.5016 297.281 44.5761C297.281 46.3727 297.392 47.7619 297.614 48.7436C297.855 49.7068 298.327 50.4384 299.031 50.9385C299.754 51.4201 300.846 51.6609 302.31 51.6609C303.532 51.6609 305.06 51.5034 306.894 51.1885L306.977 53.439C304.94 53.8465 303.227 54.0502 301.837 54.0502ZM315.672 54.0225C314.394 54.0225 312.671 53.8465 310.504 53.4946L309.504 53.3279L309.782 51.1885C312.282 51.5219 314.19 51.6886 315.505 51.6886C318.006 51.6886 319.256 50.5495 319.256 48.2713C319.256 47.6415 319.127 47.1414 318.867 46.771C318.608 46.382 318.191 46.0764 317.617 45.8541C317.061 45.6133 316.274 45.3818 315.255 45.1595C313.755 44.8076 312.588 44.4186 311.755 43.9926C310.921 43.5481 310.31 42.9831 309.921 42.2978C309.532 41.6125 309.337 40.7141 309.337 39.6028C309.337 37.8432 309.865 36.5188 310.921 35.6298C311.977 34.7407 313.533 34.2961 315.589 34.2961C316.348 34.2961 317.163 34.3424 318.034 34.4351C318.923 34.5277 320.09 34.6944 321.534 34.9352L321.312 37.1023C318.775 36.8059 316.941 36.6577 315.811 36.6577C313.273 36.6577 312.005 37.5839 312.005 39.4361C312.005 40.1214 312.144 40.6586 312.421 41.0475C312.718 41.4365 313.181 41.7607 313.811 42.02C314.44 42.2608 315.394 42.5293 316.672 42.8257C318.006 43.1591 319.043 43.5295 319.784 43.937C320.525 44.3445 321.062 44.8724 321.395 45.5207C321.747 46.169 321.923 47.021 321.923 48.0768C321.923 50.0402 321.386 51.5219 320.312 52.5222C319.256 53.5224 317.71 54.0225 315.672 54.0225ZM332.314 54.0502C330.406 54.0502 328.896 53.7076 327.785 53.0223C326.673 52.3369 325.868 51.2904 325.368 49.8827C324.886 48.4565 324.645 46.5857 324.645 44.2704C324.645 41.9737 324.886 40.1029 325.368 38.6582C325.868 37.1949 326.673 36.1113 327.785 35.4075C328.915 34.6851 330.424 34.3239 332.314 34.3239C334.203 34.3239 335.703 34.6851 336.814 35.4075C337.944 36.1113 338.75 37.1856 339.232 38.6304C339.732 40.0751 339.982 41.9644 339.982 44.2982C339.982 46.6135 339.741 48.475 339.259 49.8827C338.778 51.2904 337.981 52.3369 336.87 53.0223C335.759 53.7076 334.24 54.0502 332.314 54.0502ZM332.314 51.6886C333.61 51.6886 334.61 51.4479 335.314 50.9663C336.018 50.4662 336.509 49.6882 336.787 48.6325C337.083 47.5767 337.231 46.1319 337.231 44.2982C337.231 42.4645 337.083 41.0012 336.787 39.9084C336.49 38.7971 335.981 37.9821 335.259 37.4635C334.555 36.9263 333.573 36.6577 332.314 36.6577C331.054 36.6577 330.063 36.9263 329.341 37.4635C328.637 37.9821 328.137 38.7878 327.84 39.8806C327.544 40.9735 327.396 42.4367 327.396 44.2704C327.396 46.0671 327.535 47.4933 327.813 48.5491C328.109 49.6049 328.609 50.3921 329.313 50.9107C330.017 51.4293 331.017 51.6886 332.314 51.6886ZM344.85 40.6308H342.821L344.099 34.3239H346.794L344.85 40.6308ZM355.367 54.0225C354.089 54.0225 352.366 53.8465 350.199 53.4946L349.199 53.3279L349.477 51.1885C351.977 51.5219 353.885 51.6886 355.2 51.6886C357.701 51.6886 358.951 50.5495 358.951 48.2713C358.951 47.6415 358.821 47.1414 358.562 46.771C358.303 46.382 357.886 46.0764 357.312 45.8541C356.756 45.6133 355.969 45.3818 354.95 45.1595C353.45 44.8076 352.283 44.4186 351.449 43.9926C350.616 43.5481 350.005 42.9831 349.616 42.2978C349.227 41.6125 349.032 40.7141 349.032 39.6028C349.032 37.8432 349.56 36.5188 350.616 35.6298C351.672 34.7407 353.227 34.2961 355.283 34.2961C356.043 34.2961 356.858 34.3424 357.728 34.4351C358.617 34.5277 359.784 34.6944 361.229 34.9352L361.007 37.1023C358.469 36.8059 356.636 36.6577 355.506 36.6577C352.968 36.6577 351.699 37.5839 351.699 39.4361C351.699 40.1214 351.838 40.6586 352.116 41.0475C352.412 41.4365 352.875 41.7607 353.505 42.02C354.135 42.2608 355.089 42.5293 356.367 42.8257C357.701 43.1591 358.738 43.5295 359.479 43.937C360.22 44.3445 360.757 44.8724 361.09 45.5207C361.442 46.169 361.618 47.021 361.618 48.0768C361.618 50.0402 361.081 51.5219 360.007 52.5222C358.951 53.5224 357.404 54.0225 355.367 54.0225Z" fill="white"/>
<path d="M558.863 54.0502C556.881 54.0502 555.362 53.6891 554.306 52.9667C553.251 52.2258 552.519 51.1608 552.112 49.7716C551.723 48.3639 551.528 46.5116 551.528 44.2149C551.528 41.844 551.732 39.9547 552.139 38.547C552.547 37.1393 553.26 36.0836 554.279 35.3797C555.316 34.6758 556.779 34.3239 558.668 34.3239C560.206 34.3239 561.984 34.5462 564.003 34.9907L563.92 37.1856C562.16 36.8708 560.586 36.7133 559.196 36.7133C557.807 36.7133 556.761 36.9634 556.057 37.4635C555.353 37.945 554.881 38.7322 554.64 39.8251C554.399 40.9179 554.288 42.5016 554.306 44.5761C554.306 46.3727 554.418 47.7619 554.64 48.7436C554.881 49.7068 555.353 50.4384 556.057 50.9385C556.779 51.4201 557.872 51.6609 559.335 51.6609C560.558 51.6609 562.086 51.5034 563.92 51.1885L564.003 53.439C561.965 53.8465 560.252 54.0502 558.863 54.0502ZM572.698 54.0225C571.42 54.0225 569.697 53.8465 567.53 53.4946L566.53 53.3279L566.808 51.1885C569.308 51.5219 571.216 51.6886 572.531 51.6886C575.031 51.6886 576.282 50.5495 576.282 48.2713C576.282 47.6415 576.152 47.1414 575.893 46.771C575.633 46.382 575.217 46.0764 574.642 45.8541C574.087 45.6133 573.3 45.3818 572.281 45.1595C570.781 44.8076 569.614 44.4186 568.78 43.9926C567.947 43.5481 567.335 42.9831 566.946 42.2978C566.557 41.6125 566.363 40.7141 566.363 39.6028C566.363 37.8432 566.891 36.5188 567.947 35.6298C569.002 34.7407 570.558 34.2961 572.614 34.2961C573.374 34.2961 574.189 34.3424 575.059 34.4351C575.948 34.5277 577.115 34.6944 578.56 34.9352L578.338 37.1023C575.8 36.8059 573.966 36.6577 572.837 36.6577C570.299 36.6577 569.03 37.5839 569.03 39.4361C569.03 40.1214 569.169 40.6586 569.447 41.0475C569.743 41.4365 570.206 41.7607 570.836 42.02C571.466 42.2608 572.42 42.5293 573.698 42.8257C575.031 43.1591 576.069 43.5295 576.81 43.937C577.551 44.3445 578.088 44.8724 578.421 45.5207C578.773 46.169 578.949 47.021 578.949 48.0768C578.949 50.0402 578.412 51.5219 577.337 52.5222C576.282 53.5224 574.735 54.0225 572.698 54.0225ZM601.425 34.6295V53.7446H598.758V37.519H598.341L593.368 52.9945H590.534L585.533 37.519H585.144V53.7446H582.477V34.6295H587.144L591.951 50.2161L596.73 34.6295H601.425ZM607.085 40.6308H605.056L606.334 34.3239H609.029L607.085 40.6308ZM617.602 54.0225C616.324 54.0225 614.601 53.8465 612.434 53.4946L611.434 53.3279L611.712 51.1885C614.212 51.5219 616.12 51.6886 617.435 51.6886C619.936 51.6886 621.186 50.5495 621.186 48.2713C621.186 47.6415 621.056 47.1414 620.797 46.771C620.538 46.382 620.121 46.0764 619.547 45.8541C618.991 45.6133 618.204 45.3818 617.185 45.1595C615.685 44.8076 614.518 44.4186 613.684 43.9926C612.851 43.5481 612.239 42.9831 611.851 42.2978C611.462 41.6125 611.267 40.7141 611.267 39.6028C611.267 37.8432 611.795 36.5188 612.851 35.6298C613.907 34.7407 615.462 34.2961 617.518 34.2961C618.278 34.2961 619.093 34.3424 619.963 34.4351C620.852 34.5277 622.019 34.6944 623.464 34.9352L623.242 37.1023C620.704 36.8059 618.871 36.6577 617.741 36.6577C615.203 36.6577 613.934 37.5839 613.934 39.4361C613.934 40.1214 614.073 40.6586 614.351 41.0475C614.647 41.4365 615.11 41.7607 615.74 42.02C616.37 42.2608 617.324 42.5293 618.602 42.8257C619.936 43.1591 620.973 43.5295 621.714 43.937C622.455 44.3445 622.992 44.8724 623.325 45.5207C623.677 46.169 623.853 47.021 623.853 48.0768C623.853 50.0402 623.316 51.5219 622.242 52.5222C621.186 53.5224 619.639 54.0225 617.602 54.0225Z" fill="white"/>
<path d="M67.2266 150.973V170.088H64.5594V153.863H64.1427L59.1694 169.338H56.3355L51.3344 153.863H50.9455V170.088H48.2783V150.973H52.9459L57.7524 166.56L62.5312 150.973H67.2266ZM78.3596 170.394C76.3777 170.394 74.8589 170.033 73.8031 169.31C72.7473 168.57 72.0157 167.505 71.6082 166.115C71.2192 164.708 71.0247 162.855 71.0247 160.559C71.0247 158.188 71.2285 156.298 71.636 154.891C72.0435 153.483 72.7566 152.427 73.7753 151.723C74.8126 151.02 76.2758 150.668 78.1651 150.668C79.7025 150.668 81.4806 150.89 83.4995 151.334L83.4162 153.529C81.6566 153.215 80.0822 153.057 78.693 153.057C77.3038 153.057 76.2573 153.307 75.5535 153.807C74.8496 154.289 74.3773 155.076 74.1365 156.169C73.8957 157.262 73.7846 158.845 73.8031 160.92C73.8031 162.716 73.9142 164.106 74.1365 165.087C74.3773 166.051 74.8496 166.782 75.5535 167.282C76.2758 167.764 77.3686 168.005 78.8319 168.005C80.0544 168.005 81.5825 167.847 83.4162 167.532L83.4995 169.783C81.4621 170.19 79.7488 170.394 78.3596 170.394ZM87.999 156.975H85.9708L87.2488 150.668H89.9438L87.999 156.975ZM98.5161 170.366C97.2381 170.366 95.5155 170.19 93.3484 169.838L92.3482 169.672L92.626 167.532C95.1265 167.866 97.0343 168.032 98.3494 168.032C100.85 168.032 102.1 166.893 102.1 164.615C102.1 163.985 101.971 163.485 101.711 163.115C101.452 162.726 101.035 162.42 100.461 162.198C99.9053 161.957 99.1181 161.726 98.0994 161.503C96.5991 161.151 95.4321 160.762 94.5986 160.336C93.7651 159.892 93.1539 159.327 92.7649 158.642C92.376 157.956 92.1815 157.058 92.1815 155.947C92.1815 154.187 92.7094 152.863 93.7651 151.974C94.8209 151.084 96.3768 150.64 98.4328 150.64C99.1922 150.64 100.007 150.686 100.878 150.779C101.767 150.871 102.934 151.038 104.378 151.279L104.156 153.446C101.619 153.15 99.7849 153.001 98.655 153.001C96.1175 153.001 94.8487 153.928 94.8487 155.78C94.8487 156.465 94.9876 157.002 95.2654 157.391C95.5618 157.78 96.0249 158.104 96.6546 158.364C97.2844 158.605 98.2383 158.873 99.5163 159.169C100.85 159.503 101.887 159.873 102.628 160.281C103.369 160.688 103.906 161.216 104.24 161.864C104.591 162.513 104.767 163.365 104.767 164.421C104.767 166.384 104.23 167.866 103.156 168.866C102.1 169.866 100.554 170.366 98.5161 170.366Z" fill="white"/>
<path d="M35.0012 269.678H29.3612V267.317H43.253V269.678H37.6685V286.432H35.0012V269.678ZM43.4522 272.54H46.0083V274.29C47.6568 273.234 49.2868 272.549 50.8982 272.234V274.846C50.1758 274.994 49.4257 275.198 48.6477 275.457C47.8698 275.716 47.2215 275.967 46.7029 276.207L46.0361 276.513V286.432H43.4522V272.54ZM56.4137 286.737C55.0986 286.737 54.0984 286.367 53.4131 285.626C52.7277 284.885 52.3851 283.82 52.3851 282.431C52.3851 281.06 52.737 280.06 53.4408 279.43C54.1447 278.782 55.2653 278.384 56.8027 278.235L60.7479 277.874V276.791C60.7479 275.976 60.572 275.392 60.22 275.04C59.8681 274.67 59.3495 274.485 58.6642 274.485C57.1083 274.485 55.3116 274.596 53.2741 274.818L53.1908 272.929C55.1542 272.466 56.9786 272.234 58.6642 272.234C60.2941 272.234 61.4796 272.605 62.2204 273.346C62.9613 274.068 63.3318 275.216 63.3318 276.791V283.487C63.3688 283.857 63.4892 284.144 63.693 284.348C63.9152 284.533 64.2579 284.663 64.721 284.737L64.6376 286.737C63.8412 286.737 63.1651 286.645 62.6094 286.459C62.0537 286.293 61.5629 286.024 61.1369 285.654C59.5625 286.376 57.9881 286.737 56.4137 286.737ZM56.886 284.57C58.0159 284.57 59.1087 284.394 60.1645 284.042L60.7479 283.848V279.764L57.1361 280.097C56.4137 280.171 55.8765 280.393 55.5246 280.764C55.1912 281.116 55.0245 281.644 55.0245 282.347C55.0245 283.829 55.645 284.57 56.886 284.57ZM67.2744 272.54H69.8583V286.432H67.2744V272.54ZM67.2744 267.011H69.8305V269.817H67.2744V267.011ZM73.6777 272.54H76.2338V273.457C77.0302 273.012 77.7526 272.697 78.4009 272.512C79.0492 272.327 79.7345 272.234 80.4569 272.234C81.6238 272.234 82.5406 272.466 83.2074 272.929C83.8743 273.392 84.3466 274.114 84.6244 275.096C84.9022 276.059 85.0412 277.374 85.0412 279.041V286.432H82.4573V279.097C82.4573 277.93 82.3832 277.032 82.235 276.402C82.1054 275.753 81.8461 275.29 81.4571 275.013C81.0866 274.716 80.5402 274.568 79.8179 274.568C78.8362 274.568 77.8082 274.781 76.7339 275.207L76.2616 275.429V286.432H73.6777V272.54ZM94.015 286.737C91.885 286.737 90.3661 286.191 89.4585 285.098C88.5509 283.987 88.0971 282.236 88.0971 279.847C88.0971 277.272 88.5787 275.365 89.5419 274.124C90.5236 272.864 92.0331 272.234 94.0706 272.234C97.8492 272.234 99.7384 274.383 99.7384 278.68L99.5717 280.569H90.7088C90.7273 281.57 90.857 282.347 91.0978 282.903C91.3385 283.44 91.7275 283.829 92.2647 284.07C92.8018 284.311 93.5612 284.431 94.5429 284.431C95.1171 284.431 95.7654 284.422 96.4878 284.403C97.2101 284.366 97.8584 284.32 98.4326 284.265L99.2106 284.181L99.2661 286.182C97.099 286.552 95.3486 286.737 94.015 286.737ZM97.1546 278.541C97.1546 277.041 96.9138 275.976 96.4322 275.346C95.9691 274.716 95.1819 274.401 94.0706 274.401C92.9037 274.401 92.0517 274.735 91.5145 275.402C90.9774 276.05 90.6995 277.096 90.681 278.541H97.1546ZM102.818 272.54H105.374V274.29C107.022 273.234 108.652 272.549 110.264 272.234V274.846C109.541 274.994 108.791 275.198 108.013 275.457C107.235 275.716 106.587 275.967 106.069 276.207L105.402 276.513V286.432H102.818V272.54ZM117.141 286.737C116.066 286.737 114.668 286.589 112.945 286.293L112.112 286.154L112.223 283.931C114.464 284.246 116.066 284.403 117.03 284.403C118.011 284.403 118.752 284.255 119.252 283.959C119.752 283.663 120.002 283.181 120.002 282.514C120.002 282.033 119.873 281.671 119.613 281.431C119.373 281.171 119.058 280.986 118.669 280.875C118.28 280.745 117.724 280.625 117.002 280.514L116.335 280.403C115.279 280.236 114.436 280.023 113.807 279.764C113.195 279.504 112.723 279.125 112.39 278.624C112.056 278.124 111.89 277.439 111.89 276.568C111.89 273.698 113.649 272.262 117.168 272.262C118.28 272.262 119.669 272.401 121.336 272.679L122.142 272.845L122.086 275.013C120.012 274.716 118.419 274.568 117.307 274.568C115.418 274.568 114.473 275.142 114.473 276.291C114.473 276.717 114.594 277.05 114.835 277.291C115.075 277.513 115.381 277.68 115.752 277.791C116.141 277.902 116.687 278.022 117.391 278.152C117.52 278.171 117.78 278.217 118.169 278.291C119.262 278.495 120.114 278.736 120.725 279.013C121.355 279.273 121.818 279.662 122.114 280.18C122.429 280.699 122.586 281.403 122.586 282.292C122.586 283.829 122.142 284.959 121.253 285.681C120.364 286.385 118.993 286.737 117.141 286.737Z" fill="white"/>
<path d="M231.57 385.126V392.016H239.1V394.35H231.57V401.907H228.903V382.792H240.572V385.126H231.57ZM245.573 402.213C244.258 402.213 243.258 401.842 242.573 401.102C241.887 400.361 241.545 399.296 241.545 397.906C241.545 396.536 241.897 395.536 242.601 394.906C243.304 394.257 244.425 393.859 245.962 393.711L249.908 393.35V392.266C249.908 391.451 249.732 390.868 249.38 390.516C249.028 390.146 248.509 389.96 247.824 389.96C246.268 389.96 244.471 390.071 242.434 390.294L242.35 388.404C244.314 387.941 246.138 387.71 247.824 387.71C249.454 387.71 250.639 388.08 251.38 388.821C252.121 389.544 252.491 390.692 252.491 392.266V398.962C252.529 399.333 252.649 399.62 252.853 399.823C253.075 400.009 253.418 400.138 253.881 400.212L253.797 402.213C253.001 402.213 252.325 402.12 251.769 401.935C251.213 401.768 250.723 401.5 250.297 401.129C248.722 401.852 247.148 402.213 245.573 402.213ZM246.046 400.046C247.176 400.046 248.268 399.87 249.324 399.518L249.908 399.323V395.239L246.296 395.573C245.573 395.647 245.036 395.869 244.684 396.239C244.351 396.591 244.184 397.119 244.184 397.823C244.184 399.305 244.805 400.046 246.046 400.046ZM261.435 402.213C260.065 402.213 258.962 401.963 258.129 401.463C257.314 400.963 256.721 400.185 256.351 399.129C255.999 398.073 255.823 396.684 255.823 394.961C255.823 392.665 256.221 390.886 257.018 389.627C257.833 388.349 259.296 387.71 261.407 387.71C261.945 387.71 262.519 387.747 263.13 387.821C263.741 387.877 264.565 388.006 265.603 388.21L265.519 390.266C263.945 390.118 262.834 390.044 262.185 390.044C261.204 390.044 260.444 390.192 259.907 390.488C259.37 390.785 258.99 391.285 258.768 391.988C258.564 392.692 258.462 393.693 258.462 394.989C258.462 396.249 258.564 397.221 258.768 397.906C258.99 398.592 259.37 399.092 259.907 399.407C260.444 399.722 261.231 399.879 262.269 399.879L265.547 399.629L265.631 401.741C263.778 402.055 262.38 402.213 261.435 402.213ZM268.644 388.015H271.228V401.907H268.644V388.015ZM268.644 382.487H271.2V385.293H268.644V382.487ZM275.214 382.125H277.798V401.907H275.214V382.125ZM281.803 388.015H284.387V401.907H281.803V388.015ZM281.803 382.487H284.359V385.293H281.803V382.487ZM292.354 402.213C291.373 402.213 290.604 402.055 290.048 401.741C289.511 401.426 289.122 400.898 288.881 400.157C288.641 399.416 288.52 398.388 288.52 397.073V390.238H286.659V388.015H288.52V383.876H291.104V388.015H295.188V390.238H291.104V396.601C291.104 397.471 291.132 398.129 291.187 398.573C291.262 398.999 291.419 399.333 291.66 399.573C291.901 399.796 292.29 399.907 292.827 399.907L295.188 399.768L295.355 401.879C294.058 402.102 293.058 402.213 292.354 402.213ZM302.453 401.907H300.202L296.424 388.015H299.008L302.175 399.685H303.008L306.204 388.015H308.787L303.286 407.964H300.73L302.453 401.907ZM320.429 385.126V392.016H327.958V394.35H320.429V401.907H317.762V382.792H329.431V385.126H320.429ZM351.389 382.792V401.907H348.722V385.682H348.305L343.332 401.157H340.498L335.497 385.682H335.108V401.907H332.44V382.792H337.108L341.915 398.379L346.693 382.792H351.389ZM361.244 402.185C359.966 402.185 358.243 402.009 356.076 401.657L355.076 401.49L355.354 399.351C357.854 399.685 359.762 399.851 361.077 399.851C363.578 399.851 364.828 398.712 364.828 396.434C364.828 395.804 364.698 395.304 364.439 394.934C364.179 394.545 363.763 394.239 363.189 394.017C362.633 393.776 361.846 393.544 360.827 393.322C359.327 392.97 358.16 392.581 357.326 392.155C356.493 391.711 355.881 391.146 355.492 390.46C355.104 389.775 354.909 388.877 354.909 387.765C354.909 386.006 355.437 384.681 356.493 383.792C357.548 382.903 359.104 382.459 361.16 382.459C361.92 382.459 362.735 382.505 363.605 382.598C364.494 382.69 365.661 382.857 367.106 383.098L366.884 385.265C364.346 384.969 362.512 384.82 361.383 384.82C358.845 384.82 357.576 385.746 357.576 387.599C357.576 388.284 357.715 388.821 357.993 389.21C358.289 389.599 358.752 389.923 359.382 390.183C360.012 390.423 360.966 390.692 362.244 390.988C363.578 391.322 364.615 391.692 365.356 392.1C366.097 392.507 366.634 393.035 366.967 393.683C367.319 394.332 367.495 395.184 367.495 396.239C367.495 398.203 366.958 399.685 365.884 400.685C364.828 401.685 363.281 402.185 361.244 402.185Z" fill="white"/>
<path d="M269.656 170.366C268.378 170.366 266.655 170.19 264.488 169.838L263.488 169.672L263.765 167.532C266.266 167.866 268.174 168.032 269.489 168.032C271.989 168.032 273.24 166.893 273.24 164.615C273.24 163.985 273.11 163.485 272.851 163.115C272.591 162.726 272.175 162.42 271.6 162.198C271.045 161.957 270.258 161.726 269.239 161.503C267.739 161.151 266.572 160.762 265.738 160.336C264.905 159.892 264.293 159.327 263.904 158.642C263.515 157.956 263.321 157.058 263.321 155.947C263.321 154.187 263.849 152.863 264.905 151.974C265.96 151.084 267.516 150.64 269.572 150.64C270.332 150.64 271.147 150.686 272.017 150.779C272.906 150.871 274.073 151.038 275.518 151.279L275.296 153.446C272.758 153.15 270.924 153.001 269.794 153.001C267.257 153.001 265.988 153.928 265.988 155.78C265.988 156.465 266.127 157.002 266.405 157.391C266.701 157.78 267.164 158.104 267.794 158.364C268.424 158.605 269.378 158.873 270.656 159.169C271.989 159.503 273.027 159.873 273.768 160.281C274.508 160.688 275.046 161.216 275.379 161.864C275.731 162.513 275.907 163.365 275.907 164.421C275.907 166.384 275.37 167.866 274.295 168.866C273.24 169.866 271.693 170.366 269.656 170.366ZM279.073 156.197H281.629V157.947C283.278 156.891 284.908 156.206 286.519 155.891V158.503C285.797 158.651 285.047 158.855 284.269 159.114C283.491 159.373 282.843 159.623 282.324 159.864L281.657 160.17V170.088H279.073V156.197ZM287.264 166.477H290.07V170.088H287.264V166.477ZM319.139 150.973V170.088H316.472V153.863H316.055L311.082 169.338H308.248L303.247 153.863H302.858V170.088H300.191V150.973H304.858L309.665 166.56L314.444 150.973H319.139ZM330.272 170.394C328.29 170.394 326.771 170.033 325.716 169.31C324.66 168.57 323.928 167.505 323.521 166.115C323.132 164.708 322.937 162.855 322.937 160.559C322.937 158.188 323.141 156.298 323.548 154.891C323.956 153.483 324.669 152.427 325.688 151.723C326.725 151.02 328.188 150.668 330.078 150.668C331.615 150.668 333.393 150.89 335.412 151.334L335.329 153.529C333.569 153.215 331.995 153.057 330.606 153.057C329.216 153.057 328.17 153.307 327.466 153.807C326.762 154.289 326.29 155.076 326.049 156.169C325.808 157.262 325.697 158.845 325.716 160.92C325.716 162.716 325.827 164.106 326.049 165.087C326.29 166.051 326.762 166.782 327.466 167.282C328.188 167.764 329.281 168.005 330.744 168.005C331.967 168.005 333.495 167.847 335.329 167.532L335.412 169.783C333.375 170.19 331.661 170.394 330.272 170.394ZM339.911 156.975H337.883L339.161 150.668H341.856L339.911 156.975ZM350.429 170.366C349.151 170.366 347.428 170.19 345.261 169.838L344.261 169.672L344.539 167.532C347.039 167.866 348.947 168.032 350.262 168.032C352.762 168.032 354.013 166.893 354.013 164.615C354.013 163.985 353.883 163.485 353.624 163.115C353.364 162.726 352.948 162.42 352.373 162.198C351.818 161.957 351.031 161.726 350.012 161.503C348.512 161.151 347.345 160.762 346.511 160.336C345.678 159.892 345.066 159.327 344.677 158.642C344.288 157.956 344.094 157.058 344.094 155.947C344.094 154.187 344.622 152.863 345.678 151.974C346.733 151.084 348.289 150.64 350.345 150.64C351.105 150.64 351.92 150.686 352.79 150.779C353.679 150.871 354.846 151.038 356.291 151.279L356.069 153.446C353.531 153.15 351.697 153.001 350.568 153.001C348.03 153.001 346.761 153.928 346.761 155.78C346.761 156.465 346.9 157.002 347.178 157.391C347.474 157.78 347.937 158.104 348.567 158.364C349.197 158.605 350.151 158.873 351.429 159.169C352.762 159.503 353.8 159.873 354.541 160.281C355.282 160.688 355.819 161.216 356.152 161.864C356.504 162.513 356.68 163.365 356.68 164.421C356.68 166.384 356.143 167.866 355.068 168.866C354.013 169.866 352.466 170.366 350.429 170.366Z" fill="white"/>
<path d="M200.823 286.709C199.545 286.709 197.822 286.534 195.655 286.182L194.655 286.015L194.933 283.876C197.433 284.209 199.341 284.376 200.656 284.376C203.156 284.376 204.407 283.237 204.407 280.958C204.407 280.329 204.277 279.828 204.018 279.458C203.758 279.069 203.342 278.763 202.768 278.541C202.212 278.3 201.425 278.069 200.406 277.847C198.906 277.495 197.739 277.106 196.905 276.68C196.072 276.235 195.46 275.67 195.071 274.985C194.683 274.299 194.488 273.401 194.488 272.29C194.488 270.53 195.016 269.206 196.072 268.317C197.127 267.428 198.683 266.983 200.739 266.983C201.499 266.983 202.314 267.029 203.184 267.122C204.073 267.215 205.24 267.381 206.685 267.622L206.463 269.789C203.925 269.493 202.091 269.345 200.962 269.345C198.424 269.345 197.155 270.271 197.155 272.123C197.155 272.808 197.294 273.346 197.572 273.735C197.868 274.124 198.331 274.448 198.961 274.707C199.591 274.948 200.545 275.216 201.823 275.513C203.156 275.846 204.194 276.217 204.935 276.624C205.676 277.032 206.213 277.559 206.546 278.208C206.898 278.856 207.074 279.708 207.074 280.764C207.074 282.727 206.537 284.209 205.463 285.209C204.407 286.209 202.86 286.709 200.823 286.709ZM210.24 272.54H212.797V274.29C214.445 273.234 216.075 272.549 217.686 272.234V274.846C216.964 274.994 216.214 275.198 215.436 275.457C214.658 275.716 214.01 275.967 213.491 276.207L212.824 276.513V286.432H210.24V272.54ZM218.431 282.82H221.237V286.432H218.431V282.82ZM234.025 269.65V276.541H241.554V278.875H234.025V286.432H231.358V267.317H243.027V269.65H234.025ZM245.675 272.54H248.259V286.432H245.675V272.54ZM245.675 267.011H248.231V269.817H245.675V267.011ZM256.227 286.737C255.245 286.737 254.476 286.58 253.921 286.265C253.384 285.95 252.995 285.422 252.754 284.681C252.513 283.94 252.393 282.912 252.393 281.597V274.763H250.531V272.54H252.393V268.4H254.977V272.54H259.061V274.763H254.977V281.125C254.977 281.996 255.004 282.653 255.06 283.098C255.134 283.524 255.291 283.857 255.532 284.098C255.773 284.32 256.162 284.431 256.699 284.431L259.061 284.292L259.227 286.404C257.931 286.626 256.931 286.737 256.227 286.737ZM261.602 272.54H264.158V273.457C264.955 273.012 265.677 272.697 266.325 272.512C266.974 272.327 267.659 272.234 268.381 272.234C269.548 272.234 270.465 272.466 271.132 272.929C271.799 273.392 272.271 274.114 272.549 275.096C272.827 276.059 272.965 277.374 272.965 279.041V286.432H270.382V279.097C270.382 277.93 270.308 277.032 270.159 276.402C270.03 275.753 269.77 275.29 269.381 275.013C269.011 274.716 268.465 274.568 267.742 274.568C266.761 274.568 265.733 274.781 264.658 275.207L264.186 275.429V286.432H261.602V272.54ZM281.939 286.737C279.809 286.737 278.29 286.191 277.383 285.098C276.475 283.987 276.021 282.236 276.021 279.847C276.021 277.272 276.503 275.365 277.466 274.124C278.448 272.864 279.957 272.234 281.995 272.234C285.773 272.234 287.663 274.383 287.663 278.68L287.496 280.569H278.633C278.652 281.57 278.781 282.347 279.022 282.903C279.263 283.44 279.652 283.829 280.189 284.07C280.726 284.311 281.486 284.431 282.467 284.431C283.041 284.431 283.69 284.422 284.412 284.403C285.134 284.366 285.783 284.32 286.357 284.265L287.135 284.181L287.19 286.182C285.023 286.552 283.273 286.737 281.939 286.737ZM285.079 278.541C285.079 277.041 284.838 275.976 284.357 275.346C283.893 274.716 283.106 274.401 281.995 274.401C280.828 274.401 279.976 274.735 279.439 275.402C278.902 276.05 278.624 277.096 278.605 278.541H285.079ZM295.243 286.737C294.169 286.737 292.77 286.589 291.048 286.293L290.214 286.154L290.325 283.931C292.567 284.246 294.169 284.403 295.132 284.403C296.114 284.403 296.855 284.255 297.355 283.959C297.855 283.663 298.105 283.181 298.105 282.514C298.105 282.033 297.975 281.671 297.716 281.431C297.475 281.171 297.16 280.986 296.771 280.875C296.382 280.745 295.827 280.625 295.104 280.514L294.437 280.403C293.382 280.236 292.539 280.023 291.909 279.764C291.298 279.504 290.826 279.125 290.492 278.624C290.159 278.124 289.992 277.439 289.992 276.568C289.992 273.698 291.752 272.262 295.271 272.262C296.382 272.262 297.771 272.401 299.438 272.679L300.244 272.845L300.189 275.013C298.114 274.716 296.521 274.568 295.41 274.568C293.521 274.568 292.576 275.142 292.576 276.291C292.576 276.717 292.696 277.05 292.937 277.291C293.178 277.513 293.484 277.68 293.854 277.791C294.243 277.902 294.789 278.022 295.493 278.152C295.623 278.171 295.882 278.217 296.271 278.291C297.364 278.495 298.216 278.736 298.827 279.013C299.457 279.273 299.92 279.662 300.216 280.18C300.531 280.699 300.689 281.403 300.689 282.292C300.689 283.829 300.244 284.959 299.355 285.681C298.466 286.385 297.095 286.737 295.243 286.737ZM308.212 286.737C307.138 286.737 305.74 286.589 304.017 286.293L303.184 286.154L303.295 283.931C305.536 284.246 307.138 284.403 308.101 284.403C309.083 284.403 309.824 284.255 310.324 283.959C310.824 283.663 311.074 283.181 311.074 282.514C311.074 282.033 310.944 281.671 310.685 281.431C310.444 281.171 310.129 280.986 309.74 280.875C309.352 280.745 308.796 280.625 308.073 280.514L307.407 280.403C306.351 280.236 305.508 280.023 304.878 279.764C304.267 279.504 303.795 279.125 303.461 278.624C303.128 278.124 302.961 277.439 302.961 276.568C302.961 273.698 304.721 272.262 308.24 272.262C309.352 272.262 310.741 272.401 312.408 272.679L313.213 272.845L313.158 275.013C311.083 274.716 309.49 274.568 308.379 274.568C306.49 274.568 305.545 275.142 305.545 276.291C305.545 276.717 305.666 277.05 305.906 277.291C306.147 277.513 306.453 277.68 306.823 277.791C307.212 277.902 307.759 278.022 308.462 278.152C308.592 278.171 308.851 278.217 309.24 278.291C310.333 278.495 311.185 278.736 311.796 279.013C312.426 279.273 312.889 279.662 313.186 280.18C313.501 280.699 313.658 281.403 313.658 282.292C313.658 283.829 313.213 284.959 312.324 285.681C311.435 286.385 310.065 286.737 308.212 286.737ZM342.095 267.317V286.432H339.428V270.206H339.011L334.038 285.681H331.204L326.203 270.206H325.814V286.432H323.147V267.317H327.814L332.621 282.903L337.4 267.317H342.095ZM349.422 286.737C348.107 286.737 347.106 286.367 346.421 285.626C345.736 284.885 345.393 283.82 345.393 282.431C345.393 281.06 345.745 280.06 346.449 279.43C347.153 278.782 348.273 278.384 349.811 278.235L353.756 277.874V276.791C353.756 275.976 353.58 275.392 353.228 275.04C352.876 274.67 352.358 274.485 351.672 274.485C350.116 274.485 348.32 274.596 346.282 274.818L346.199 272.929C348.162 272.466 349.987 272.234 351.672 272.234C353.302 272.234 354.488 272.605 355.228 273.346C355.969 274.068 356.34 275.216 356.34 276.791V283.487C356.377 283.857 356.497 284.144 356.701 284.348C356.923 284.533 357.266 284.663 357.729 284.737L357.646 286.737C356.849 286.737 356.173 286.645 355.617 286.459C355.062 286.293 354.571 286.024 354.145 285.654C352.571 286.376 350.996 286.737 349.422 286.737ZM349.894 284.57C351.024 284.57 352.117 284.394 353.172 284.042L353.756 283.848V279.764L350.144 280.097C349.422 280.171 348.885 280.393 348.533 280.764C348.199 281.116 348.033 281.644 348.033 282.347C348.033 283.829 348.653 284.57 349.894 284.57ZM360.282 272.54H362.839V273.457C363.635 273.012 364.357 272.697 365.006 272.512C365.654 272.327 366.339 272.234 367.062 272.234C368.229 272.234 369.145 272.466 369.812 272.929C370.479 273.392 370.951 274.114 371.229 275.096C371.507 276.059 371.646 277.374 371.646 279.041V286.432H369.062V279.097C369.062 277.93 368.988 277.032 368.84 276.402C368.71 275.753 368.451 275.29 368.062 275.013C367.691 274.716 367.145 274.568 366.423 274.568C365.441 274.568 364.413 274.781 363.339 275.207L362.866 275.429V286.432H360.282V272.54ZM378.48 286.737C377.165 286.737 376.165 286.367 375.48 285.626C374.795 284.885 374.452 283.82 374.452 282.431C374.452 281.06 374.804 280.06 375.508 279.43C376.211 278.782 377.332 278.384 378.869 278.235L382.815 277.874V276.791C382.815 275.976 382.639 275.392 382.287 275.04C381.935 274.67 381.416 274.485 380.731 274.485C379.175 274.485 377.378 274.596 375.341 274.818L375.258 272.929C377.221 272.466 379.045 272.234 380.731 272.234C382.361 272.234 383.546 272.605 384.287 273.346C385.028 274.068 385.399 275.216 385.399 276.791V283.487C385.436 283.857 385.556 284.144 385.76 284.348C385.982 284.533 386.325 284.663 386.788 284.737L386.704 286.737C385.908 286.737 385.232 286.645 384.676 286.459C384.121 286.293 383.63 286.024 383.204 285.654C381.629 286.376 380.055 286.737 378.48 286.737ZM378.953 284.57C380.083 284.57 381.175 284.394 382.231 284.042L382.815 283.848V279.764L379.203 280.097C378.48 280.171 377.943 280.393 377.591 280.764C377.258 281.116 377.091 281.644 377.091 282.347C377.091 283.829 377.712 284.57 378.953 284.57ZM394.565 292.905C392.527 292.905 391.036 292.6 390.091 291.988C389.165 291.396 388.702 290.395 388.702 288.988C388.702 288.191 388.85 287.552 389.147 287.071C389.462 286.608 390.027 286.061 390.842 285.431C390.545 285.228 390.323 284.959 390.175 284.626C390.045 284.292 389.98 283.94 389.98 283.57C389.98 283.311 390.036 283.042 390.147 282.764C390.277 282.468 390.554 281.958 390.98 281.236C389.573 280.495 388.869 279.115 388.869 277.096C388.869 273.873 390.675 272.262 394.287 272.262C395.139 272.262 396.083 272.382 397.121 272.623L401.344 272.512V274.651L398.871 274.568C399.167 274.901 399.38 275.272 399.51 275.679C399.64 276.068 399.704 276.578 399.704 277.208C399.704 278.856 399.26 280.041 398.371 280.764C397.5 281.468 396.13 281.82 394.259 281.82C393.703 281.82 393.249 281.783 392.898 281.708C392.601 282.412 392.453 282.922 392.453 283.237C392.453 283.681 392.629 283.968 392.981 284.098C393.351 284.227 393.916 284.292 394.676 284.292H395.648C396.945 284.311 397.982 284.413 398.76 284.598C399.538 284.783 400.14 285.163 400.566 285.737C400.992 286.293 401.205 287.108 401.205 288.182C401.205 289.812 400.677 291.007 399.621 291.766C398.584 292.525 396.898 292.905 394.565 292.905ZM394.314 279.791C395.315 279.791 396.028 279.578 396.454 279.152C396.898 278.726 397.121 278.022 397.121 277.041C397.121 276.078 396.898 275.383 396.454 274.957C396.009 274.531 395.296 274.318 394.314 274.318C393.314 274.318 392.583 274.54 392.12 274.985C391.675 275.411 391.453 276.105 391.453 277.069C391.453 278.032 391.675 278.726 392.12 279.152C392.583 279.578 393.314 279.791 394.314 279.791ZM394.787 290.766C396.176 290.766 397.148 290.581 397.704 290.21C398.278 289.858 398.565 289.247 398.565 288.376C398.565 287.858 398.454 287.469 398.232 287.21C398.028 286.969 397.713 286.802 397.287 286.709C396.861 286.635 396.232 286.589 395.398 286.571L392.564 286.404C392.064 286.793 391.721 287.145 391.536 287.46C391.351 287.775 391.258 288.154 391.258 288.599C391.258 289.395 391.527 289.951 392.064 290.266C392.601 290.599 393.509 290.766 394.787 290.766ZM409.055 286.737C406.924 286.737 405.406 286.191 404.498 285.098C403.59 283.987 403.137 282.236 403.137 279.847C403.137 277.272 403.618 275.365 404.581 274.124C405.563 272.864 407.073 272.234 409.11 272.234C412.889 272.234 414.778 274.383 414.778 278.68L414.611 280.569H405.748C405.767 281.57 405.896 282.347 406.137 282.903C406.378 283.44 406.767 283.829 407.304 284.07C407.841 284.311 408.601 284.431 409.582 284.431C410.157 284.431 410.805 284.422 411.527 284.403C412.25 284.366 412.898 284.32 413.472 284.265L414.25 284.181L414.306 286.182C412.139 286.552 410.388 286.737 409.055 286.737ZM412.194 278.541C412.194 277.041 411.953 275.976 411.472 275.346C411.009 274.716 410.221 274.401 409.11 274.401C407.943 274.401 407.091 274.735 406.554 275.402C406.017 276.05 405.739 277.096 405.721 278.541H412.194ZM417.857 272.54H420.413V274.29C422.062 273.234 423.692 272.549 425.303 272.234V274.846C424.581 274.994 423.831 275.198 423.053 275.457C422.275 275.716 421.627 275.967 421.108 276.207L420.441 276.513V286.432H417.857V272.54Z" fill="white"/>
<path d="M508.585 170.366C507.307 170.366 505.584 170.19 503.417 169.838L502.417 169.672L502.695 167.532C505.195 167.866 507.103 168.032 508.418 168.032C510.919 168.032 512.169 166.893 512.169 164.615C512.169 163.985 512.039 163.485 511.78 163.115C511.521 162.726 511.104 162.42 510.53 162.198C509.974 161.957 509.187 161.726 508.168 161.503C506.668 161.151 505.501 160.762 504.667 160.336C503.834 159.892 503.223 159.327 502.834 158.642C502.445 157.956 502.25 157.058 502.25 155.947C502.25 154.187 502.778 152.863 503.834 151.974C504.89 151.084 506.446 150.64 508.502 150.64C509.261 150.64 510.076 150.686 510.947 150.779C511.836 150.871 513.002 151.038 514.447 151.279L514.225 153.446C511.687 153.15 509.854 153.001 508.724 153.001C506.186 153.001 504.917 153.928 504.917 155.78C504.917 156.465 505.056 157.002 505.334 157.391C505.631 157.78 506.094 158.104 506.723 158.364C507.353 158.605 508.307 158.873 509.585 159.169C510.919 159.503 511.956 159.873 512.697 160.281C513.438 160.688 513.975 161.216 514.308 161.864C514.66 162.513 514.836 163.365 514.836 164.421C514.836 166.384 514.299 167.866 513.225 168.866C512.169 169.866 510.622 170.366 508.585 170.366ZM521.142 170.394C519.827 170.394 518.827 170.024 518.142 169.283C517.456 168.542 517.114 167.477 517.114 166.088C517.114 164.717 517.466 163.717 518.169 163.087C518.873 162.439 519.994 162.04 521.531 161.892L525.476 161.531V160.447C525.476 159.633 525.3 159.049 524.949 158.697C524.597 158.327 524.078 158.141 523.393 158.141C521.837 158.141 520.04 158.253 518.003 158.475L517.919 156.586C519.883 156.123 521.707 155.891 523.393 155.891C525.023 155.891 526.208 156.261 526.949 157.002C527.69 157.725 528.06 158.873 528.06 160.447V167.143C528.097 167.514 528.218 167.801 528.421 168.005C528.644 168.19 528.986 168.319 529.449 168.394L529.366 170.394C528.57 170.394 527.894 170.301 527.338 170.116C526.782 169.949 526.291 169.681 525.865 169.31C524.291 170.033 522.717 170.394 521.142 170.394ZM521.615 168.227C522.744 168.227 523.837 168.051 524.893 167.699L525.476 167.505V163.42L521.865 163.754C521.142 163.828 520.605 164.05 520.253 164.421C519.92 164.772 519.753 165.3 519.753 166.004C519.753 167.486 520.374 168.227 521.615 168.227ZM532.17 150.306H534.754V170.088H532.17V150.306ZM543.875 170.394C541.745 170.394 540.226 169.848 539.319 168.755C538.411 167.643 537.957 165.893 537.957 163.504C537.957 160.929 538.439 159.021 539.402 157.78C540.384 156.521 541.893 155.891 543.931 155.891C547.709 155.891 549.598 158.04 549.598 162.337L549.432 164.226H540.569C540.587 165.226 540.717 166.004 540.958 166.56C541.199 167.097 541.588 167.486 542.125 167.727C542.662 167.968 543.421 168.088 544.403 168.088C544.977 168.088 545.625 168.079 546.348 168.06C547.07 168.023 547.718 167.977 548.293 167.921L549.071 167.838L549.126 169.838C546.959 170.209 545.209 170.394 543.875 170.394ZM547.015 162.198C547.015 160.698 546.774 159.633 546.292 159.003C545.829 158.373 545.042 158.058 543.931 158.058C542.764 158.058 541.912 158.392 541.374 159.058C540.837 159.707 540.56 160.753 540.541 162.198H547.015ZM557.179 170.394C556.104 170.394 554.706 170.246 552.983 169.949L552.15 169.811L552.261 167.588C554.502 167.903 556.104 168.06 557.068 168.06C558.049 168.06 558.79 167.912 559.29 167.616C559.79 167.319 560.04 166.838 560.04 166.171C560.04 165.689 559.911 165.328 559.652 165.087C559.411 164.828 559.096 164.643 558.707 164.532C558.318 164.402 557.762 164.282 557.04 164.17L556.373 164.059C555.317 163.893 554.475 163.68 553.845 163.42C553.234 163.161 552.761 162.781 552.428 162.281C552.094 161.781 551.928 161.096 551.928 160.225C551.928 157.354 553.687 155.919 557.207 155.919C558.318 155.919 559.707 156.058 561.374 156.336L562.18 156.502L562.124 158.669C560.05 158.373 558.457 158.225 557.345 158.225C555.456 158.225 554.512 158.799 554.512 159.947C554.512 160.373 554.632 160.707 554.873 160.948C555.114 161.17 555.419 161.337 555.79 161.448C556.179 161.559 556.725 161.679 557.429 161.809C557.558 161.827 557.818 161.874 558.207 161.948C559.3 162.152 560.152 162.392 560.763 162.67C561.393 162.929 561.856 163.318 562.152 163.837C562.467 164.356 562.624 165.06 562.624 165.949C562.624 167.486 562.18 168.616 561.291 169.338C560.402 170.042 559.031 170.394 557.179 170.394ZM591.061 150.973V170.088H588.394V153.863H587.978L583.004 169.338H580.17L575.169 153.863H574.78V170.088H572.113V150.973H576.781L581.587 166.56L586.366 150.973H591.061ZM598.388 170.394C597.073 170.394 596.073 170.024 595.387 169.283C594.702 168.542 594.359 167.477 594.359 166.088C594.359 164.717 594.711 163.717 595.415 163.087C596.119 162.439 597.24 162.04 598.777 161.892L602.722 161.531V160.447C602.722 159.633 602.546 159.049 602.194 158.697C601.843 158.327 601.324 158.141 600.639 158.141C599.083 158.141 597.286 158.253 595.249 158.475L595.165 156.586C597.129 156.123 598.953 155.891 600.639 155.891C602.269 155.891 603.454 156.261 604.195 157.002C604.936 157.725 605.306 158.873 605.306 160.447V167.143C605.343 167.514 605.464 167.801 605.667 168.005C605.89 168.19 606.232 168.319 606.695 168.394L606.612 170.394C605.816 170.394 605.139 170.301 604.584 170.116C604.028 169.949 603.537 169.681 603.111 169.31C601.537 170.033 599.962 170.394 598.388 170.394ZM598.86 168.227C599.99 168.227 601.083 168.051 602.139 167.699L602.722 167.505V163.42L599.11 163.754C598.388 163.828 597.851 164.05 597.499 164.421C597.166 164.772 596.999 165.3 596.999 166.004C596.999 167.486 597.619 168.227 598.86 168.227ZM609.249 156.197H611.805V157.113C612.601 156.669 613.324 156.354 613.972 156.169C614.62 155.984 615.306 155.891 616.028 155.891C617.195 155.891 618.112 156.123 618.779 156.586C619.445 157.049 619.918 157.771 620.196 158.753C620.473 159.716 620.612 161.031 620.612 162.698V170.088H618.028V162.754C618.028 161.587 617.954 160.688 617.806 160.059C617.677 159.41 617.417 158.947 617.028 158.669C616.658 158.373 616.111 158.225 615.389 158.225C614.407 158.225 613.379 158.438 612.305 158.864L611.833 159.086V170.088H609.249V156.197ZM627.447 170.394C626.132 170.394 625.132 170.024 624.446 169.283C623.761 168.542 623.418 167.477 623.418 166.088C623.418 164.717 623.77 163.717 624.474 163.087C625.178 162.439 626.298 162.04 627.836 161.892L631.781 161.531V160.447C631.781 159.633 631.605 159.049 631.253 158.697C630.901 158.327 630.383 158.141 629.697 158.141C628.141 158.141 626.345 158.253 624.307 158.475L624.224 156.586C626.187 156.123 628.012 155.891 629.697 155.891C631.327 155.891 632.513 156.261 633.254 157.002C633.995 157.725 634.365 158.873 634.365 160.447V167.143C634.402 167.514 634.522 167.801 634.726 168.005C634.948 168.19 635.291 168.319 635.754 168.394L635.671 170.394C634.874 170.394 634.198 170.301 633.643 170.116C633.087 169.949 632.596 169.681 632.17 169.31C630.596 170.033 629.021 170.394 627.447 170.394ZM627.919 168.227C629.049 168.227 630.142 168.051 631.198 167.699L631.781 167.505V163.42L628.169 163.754C627.447 163.828 626.91 164.05 626.558 164.421C626.224 164.772 626.058 165.3 626.058 166.004C626.058 167.486 626.678 168.227 627.919 168.227ZM643.531 176.562C641.493 176.562 640.002 176.256 639.058 175.645C638.132 175.052 637.669 174.052 637.669 172.644C637.669 171.848 637.817 171.209 638.113 170.727C638.428 170.264 638.993 169.718 639.808 169.088C639.512 168.884 639.289 168.616 639.141 168.282C639.011 167.949 638.947 167.597 638.947 167.227C638.947 166.967 639.002 166.699 639.113 166.421C639.243 166.125 639.521 165.615 639.947 164.893C638.539 164.152 637.835 162.772 637.835 160.753C637.835 157.53 639.641 155.919 643.253 155.919C644.105 155.919 645.05 156.039 646.087 156.28L650.31 156.169V158.308L647.837 158.225C648.134 158.558 648.347 158.929 648.476 159.336C648.606 159.725 648.671 160.234 648.671 160.864C648.671 162.513 648.226 163.698 647.337 164.421C646.467 165.124 645.096 165.476 643.225 165.476C642.67 165.476 642.216 165.439 641.864 165.365C641.568 166.069 641.419 166.578 641.419 166.893C641.419 167.338 641.595 167.625 641.947 167.755C642.318 167.884 642.883 167.949 643.642 167.949H644.614C645.911 167.968 646.948 168.069 647.726 168.255C648.504 168.44 649.106 168.82 649.532 169.394C649.958 169.949 650.171 170.764 650.171 171.839C650.171 173.469 649.643 174.663 648.588 175.423C647.55 176.182 645.865 176.562 643.531 176.562ZM643.281 163.448C644.281 163.448 644.994 163.235 645.42 162.809C645.865 162.383 646.087 161.679 646.087 160.698C646.087 159.734 645.865 159.04 645.42 158.614C644.976 158.188 644.263 157.975 643.281 157.975C642.281 157.975 641.549 158.197 641.086 158.642C640.641 159.068 640.419 159.762 640.419 160.725C640.419 161.688 640.641 162.383 641.086 162.809C641.549 163.235 642.281 163.448 643.281 163.448ZM643.753 174.423C645.142 174.423 646.115 174.237 646.67 173.867C647.245 173.515 647.532 172.904 647.532 172.033C647.532 171.515 647.421 171.126 647.198 170.866C646.995 170.626 646.68 170.459 646.254 170.366C645.828 170.292 645.198 170.246 644.364 170.227L641.531 170.061C641.03 170.45 640.688 170.801 640.503 171.116C640.317 171.431 640.225 171.811 640.225 172.255C640.225 173.052 640.493 173.608 641.03 173.923C641.568 174.256 642.475 174.423 643.753 174.423ZM658.021 170.394C655.891 170.394 654.372 169.848 653.464 168.755C652.557 167.643 652.103 165.893 652.103 163.504C652.103 160.929 652.585 159.021 653.548 157.78C654.529 156.521 656.039 155.891 658.076 155.891C661.855 155.891 663.744 158.04 663.744 162.337L663.578 164.226H654.715C654.733 165.226 654.863 166.004 655.104 166.56C655.344 167.097 655.733 167.486 656.271 167.727C656.808 167.968 657.567 168.088 658.549 168.088C659.123 168.088 659.771 168.079 660.494 168.06C661.216 168.023 661.864 167.977 662.439 167.921L663.216 167.838L663.272 169.838C661.105 170.209 659.355 170.394 658.021 170.394ZM661.16 162.198C661.16 160.698 660.92 159.633 660.438 159.003C659.975 158.373 659.188 158.058 658.076 158.058C656.91 158.058 656.058 158.392 655.52 159.058C654.983 159.707 654.705 160.753 654.687 162.198H661.16ZM666.824 156.197H669.38V157.947C671.028 156.891 672.658 156.206 674.27 155.891V158.503C673.547 158.651 672.797 158.855 672.019 159.114C671.241 159.373 670.593 159.623 670.074 159.864L669.408 160.17V170.088H666.824V156.197Z" fill="white"/>
<path d="M482.585 286.709C481.307 286.709 479.584 286.534 477.417 286.182L476.417 286.015L476.695 283.876C479.195 284.209 481.103 284.376 482.418 284.376C484.919 284.376 486.169 283.237 486.169 280.958C486.169 280.329 486.039 279.828 485.78 279.458C485.521 279.069 485.104 278.763 484.53 278.541C483.974 278.3 483.187 278.069 482.168 277.847C480.668 277.495 479.501 277.106 478.667 276.68C477.834 276.235 477.223 275.67 476.834 274.985C476.445 274.299 476.25 273.401 476.25 272.29C476.25 270.53 476.778 269.206 477.834 268.317C478.89 267.428 480.446 266.983 482.502 266.983C483.261 266.983 484.076 267.029 484.947 267.122C485.836 267.215 487.002 267.381 488.447 267.622L488.225 269.789C485.687 269.493 483.854 269.345 482.724 269.345C480.186 269.345 478.917 270.271 478.917 272.123C478.917 272.808 479.056 273.346 479.334 273.735C479.631 274.124 480.094 274.448 480.723 274.707C481.353 274.948 482.307 275.216 483.585 275.513C484.919 275.846 485.956 276.217 486.697 276.624C487.438 277.032 487.975 277.559 488.308 278.208C488.66 278.856 488.836 279.708 488.836 280.764C488.836 282.727 488.299 284.209 487.225 285.209C486.169 286.209 484.622 286.709 482.585 286.709ZM492.003 272.54H494.559V274.29C496.207 273.234 497.837 272.549 499.449 272.234V274.846C498.726 274.994 497.976 275.198 497.198 275.457C496.42 275.716 495.772 275.967 495.253 276.207L494.587 276.513V286.432H492.003V272.54ZM500.193 282.82H503V286.432H500.193V282.82ZM518.427 286.709C517.149 286.709 515.426 286.534 513.259 286.182L512.259 286.015L512.537 283.876C515.037 284.209 516.945 284.376 518.26 284.376C520.761 284.376 522.011 283.237 522.011 280.958C522.011 280.329 521.881 279.828 521.622 279.458C521.363 279.069 520.946 278.763 520.372 278.541C519.816 278.3 519.029 278.069 518.01 277.847C516.51 277.495 515.343 277.106 514.509 276.68C513.676 276.235 513.065 275.67 512.676 274.985C512.287 274.299 512.092 273.401 512.092 272.29C512.092 270.53 512.62 269.206 513.676 268.317C514.732 267.428 516.287 266.983 518.343 266.983C519.103 266.983 519.918 267.029 520.788 267.122C521.677 267.215 522.844 267.381 524.289 267.622L524.067 269.789C521.529 269.493 519.696 269.345 518.566 269.345C516.028 269.345 514.759 270.271 514.759 272.123C514.759 272.808 514.898 273.346 515.176 273.735C515.472 274.124 515.936 274.448 516.565 274.707C517.195 274.948 518.149 275.216 519.427 275.513C520.761 275.846 521.798 276.217 522.539 276.624C523.28 277.032 523.817 277.559 524.15 278.208C524.502 278.856 524.678 279.708 524.678 280.764C524.678 282.727 524.141 284.209 523.067 285.209C522.011 286.209 520.464 286.709 518.427 286.709ZM527.845 272.54H530.401V273.457C531.123 273.031 531.79 272.725 532.401 272.54C533.031 272.336 533.698 272.234 534.401 272.234C536.143 272.234 537.411 272.818 538.208 273.985C539.023 275.133 539.43 276.957 539.43 279.458C539.43 281.218 539.227 282.635 538.819 283.709C538.412 284.765 537.754 285.533 536.846 286.015C535.957 286.496 534.763 286.737 533.262 286.737C532.429 286.737 531.484 286.645 530.428 286.459V292.488H527.845V272.54ZM533.151 284.487C534.485 284.487 535.42 284.098 535.957 283.32C536.513 282.542 536.791 281.273 536.791 279.514C536.791 277.772 536.55 276.513 536.068 275.735C535.587 274.957 534.837 274.568 533.818 274.568C533.355 274.568 532.855 274.642 532.318 274.79C531.781 274.92 531.308 275.077 530.901 275.263L530.428 275.513V284.209C531.725 284.394 532.633 284.487 533.151 284.487ZM548.077 286.737C545.91 286.737 544.354 286.163 543.41 285.015C542.465 283.848 541.993 282.023 541.993 279.541C541.993 277.004 542.474 275.152 543.437 273.985C544.401 272.818 545.947 272.234 548.077 272.234C550.226 272.234 551.772 272.827 552.717 274.012C553.68 275.179 554.162 277.022 554.162 279.541C554.162 282.005 553.69 283.82 552.745 284.987C551.8 286.154 550.244 286.737 548.077 286.737ZM548.077 284.487C548.966 284.487 549.652 284.329 550.133 284.014C550.633 283.7 550.985 283.19 551.189 282.486C551.393 281.783 551.495 280.801 551.495 279.541C551.495 278.226 551.383 277.208 551.161 276.485C550.957 275.763 550.606 275.253 550.105 274.957C549.624 274.642 548.948 274.485 548.077 274.485C547.207 274.485 546.521 274.642 546.021 274.957C545.521 275.253 545.16 275.772 544.938 276.513C544.734 277.235 544.632 278.245 544.632 279.541C544.632 280.782 544.734 281.764 544.938 282.486C545.141 283.19 545.493 283.7 545.993 284.014C546.494 284.329 547.188 284.487 548.077 284.487ZM557.337 272.54H559.894V274.29C561.542 273.234 563.172 272.549 564.783 272.234V274.846C564.061 274.994 563.311 275.198 562.533 275.457C561.755 275.716 561.107 275.967 560.588 276.207L559.921 276.513V286.432H557.337V272.54ZM571.66 286.737C570.679 286.737 569.91 286.58 569.354 286.265C568.817 285.95 568.428 285.422 568.187 284.681C567.947 283.94 567.826 282.912 567.826 281.597V274.763H565.965V272.54H567.826V268.4H570.41V272.54H574.494V274.763H570.41V281.125C570.41 281.996 570.438 282.653 570.493 283.098C570.567 283.524 570.725 283.857 570.966 284.098C571.206 284.32 571.595 284.431 572.133 284.431L574.494 284.292L574.661 286.404C573.364 286.626 572.364 286.737 571.66 286.737ZM581.536 286.737C580.462 286.737 579.064 286.589 577.341 286.293L576.508 286.154L576.619 283.931C578.86 284.246 580.462 284.403 581.425 284.403C582.407 284.403 583.148 284.255 583.648 283.959C584.148 283.663 584.398 283.181 584.398 282.514C584.398 282.033 584.269 281.671 584.009 281.431C583.768 281.171 583.454 280.986 583.065 280.875C582.676 280.745 582.12 280.625 581.398 280.514L580.731 280.403C579.675 280.236 578.832 280.023 578.202 279.764C577.591 279.504 577.119 279.125 576.785 278.624C576.452 278.124 576.285 277.439 576.285 276.568C576.285 273.698 578.045 272.262 581.564 272.262C582.676 272.262 584.065 272.401 585.732 272.679L586.538 272.845L586.482 275.013C584.407 274.716 582.815 274.568 581.703 274.568C579.814 274.568 578.869 275.142 578.869 276.291C578.869 276.717 578.99 277.05 579.23 277.291C579.471 277.513 579.777 277.68 580.147 277.791C580.536 277.902 581.083 278.022 581.787 278.152C581.916 278.171 582.175 278.217 582.564 278.291C583.657 278.495 584.509 278.736 585.121 279.013C585.75 279.273 586.213 279.662 586.51 280.18C586.825 280.699 586.982 281.403 586.982 282.292C586.982 283.829 586.538 284.959 585.648 285.681C584.759 286.385 583.389 286.737 581.536 286.737ZM615.419 267.317V286.432H612.752V270.206H612.335L607.362 285.681H604.528L599.527 270.206H599.138V286.432H596.471V267.317H601.138L605.945 282.903L610.724 267.317H615.419ZM622.746 286.737C621.431 286.737 620.43 286.367 619.745 285.626C619.06 284.885 618.717 283.82 618.717 282.431C618.717 281.06 619.069 280.06 619.773 279.43C620.477 278.782 621.597 278.384 623.135 278.235L627.08 277.874V276.791C627.08 275.976 626.904 275.392 626.552 275.04C626.2 274.67 625.682 274.485 624.996 274.485C623.44 274.485 621.644 274.596 619.606 274.818L619.523 272.929C621.486 272.466 623.311 272.234 624.996 272.234C626.626 272.234 627.812 272.605 628.553 273.346C629.293 274.068 629.664 275.216 629.664 276.791V283.487C629.701 283.857 629.821 284.144 630.025 284.348C630.247 284.533 630.59 284.663 631.053 284.737L630.97 286.737C630.173 286.737 629.497 286.645 628.942 286.459C628.386 286.293 627.895 286.024 627.469 285.654C625.895 286.376 624.32 286.737 622.746 286.737ZM623.218 284.57C624.348 284.57 625.441 284.394 626.497 284.042L627.08 283.848V279.764L623.468 280.097C622.746 280.171 622.209 280.393 621.857 280.764C621.523 281.116 621.357 281.644 621.357 282.347C621.357 283.829 621.977 284.57 623.218 284.57ZM633.607 272.54H636.163V273.457C636.959 273.012 637.681 272.697 638.33 272.512C638.978 272.327 639.663 272.234 640.386 272.234C641.553 272.234 642.469 272.466 643.136 272.929C643.803 273.392 644.275 274.114 644.553 275.096C644.831 276.059 644.97 277.374 644.97 279.041V286.432H642.386V279.097C642.386 277.93 642.312 277.032 642.164 276.402C642.034 275.753 641.775 275.29 641.386 275.013C641.015 274.716 640.469 274.568 639.747 274.568C638.765 274.568 637.737 274.781 636.663 275.207L636.19 275.429V286.432H633.607V272.54ZM651.805 286.737C650.489 286.737 649.489 286.367 648.804 285.626C648.119 284.885 647.776 283.82 647.776 282.431C647.776 281.06 648.128 280.06 648.832 279.43C649.536 278.782 650.656 278.384 652.194 278.235L656.139 277.874V276.791C656.139 275.976 655.963 275.392 655.611 275.04C655.259 274.67 654.74 274.485 654.055 274.485C652.499 274.485 650.702 274.596 648.665 274.818L648.582 272.929C650.545 272.466 652.369 272.234 654.055 272.234C655.685 272.234 656.87 272.605 657.611 273.346C658.352 274.068 658.723 275.216 658.723 276.791V283.487C658.76 283.857 658.88 284.144 659.084 284.348C659.306 284.533 659.649 284.663 660.112 284.737L660.028 286.737C659.232 286.737 658.556 286.645 658 286.459C657.445 286.293 656.954 286.024 656.528 285.654C654.953 286.376 653.379 286.737 651.805 286.737ZM652.277 284.57C653.407 284.57 654.5 284.394 655.555 284.042L656.139 283.848V279.764L652.527 280.097C651.805 280.171 651.267 280.393 650.915 280.764C650.582 281.116 650.415 281.644 650.415 282.347C650.415 283.829 651.036 284.57 652.277 284.57ZM667.889 292.905C665.851 292.905 664.36 292.6 663.415 291.988C662.489 291.396 662.026 290.395 662.026 288.988C662.026 288.191 662.174 287.552 662.471 287.071C662.786 286.608 663.351 286.061 664.166 285.431C663.869 285.228 663.647 284.959 663.499 284.626C663.369 284.292 663.304 283.94 663.304 283.57C663.304 283.311 663.36 283.042 663.471 282.764C663.601 282.468 663.879 281.958 664.305 281.236C662.897 280.495 662.193 279.115 662.193 277.096C662.193 273.873 663.999 272.262 667.611 272.262C668.463 272.262 669.407 272.382 670.445 272.623L674.668 272.512V274.651L672.195 274.568C672.491 274.901 672.704 275.272 672.834 275.679C672.964 276.068 673.029 276.578 673.029 277.208C673.029 278.856 672.584 280.041 671.695 280.764C670.824 281.468 669.454 281.82 667.583 281.82C667.027 281.82 666.574 281.783 666.222 281.708C665.925 282.412 665.777 282.922 665.777 283.237C665.777 283.681 665.953 283.968 666.305 284.098C666.675 284.227 667.24 284.292 668 284.292H668.972C670.269 284.311 671.306 284.413 672.084 284.598C672.862 284.783 673.464 285.163 673.89 285.737C674.316 286.293 674.529 287.108 674.529 288.182C674.529 289.812 674.001 291.007 672.945 291.766C671.908 292.525 670.222 292.905 667.889 292.905ZM667.639 279.791C668.639 279.791 669.352 279.578 669.778 279.152C670.222 278.726 670.445 278.022 670.445 277.041C670.445 276.078 670.222 275.383 669.778 274.957C669.333 274.531 668.62 274.318 667.639 274.318C666.638 274.318 665.907 274.54 665.444 274.985C664.999 275.411 664.777 276.105 664.777 277.069C664.777 278.032 664.999 278.726 665.444 279.152C665.907 279.578 666.638 279.791 667.639 279.791ZM668.111 290.766C669.5 290.766 670.472 290.581 671.028 290.21C671.602 289.858 671.889 289.247 671.889 288.376C671.889 287.858 671.778 287.469 671.556 287.21C671.352 286.969 671.037 286.802 670.611 286.709C670.185 286.635 669.556 286.589 668.722 286.571L665.888 286.404C665.388 286.793 665.045 287.145 664.86 287.46C664.675 287.775 664.582 288.154 664.582 288.599C664.582 289.395 664.851 289.951 665.388 290.266C665.925 290.599 666.833 290.766 668.111 290.766ZM682.379 286.737C680.249 286.737 678.73 286.191 677.822 285.098C676.915 283.987 676.461 282.236 676.461 279.847C676.461 277.272 676.942 275.365 677.905 274.124C678.887 272.864 680.397 272.234 682.434 272.234C686.213 272.234 688.102 274.383 688.102 278.68L687.935 280.569H679.072C679.091 281.57 679.221 282.347 679.461 282.903C679.702 283.44 680.091 283.829 680.628 284.07C681.165 284.311 681.925 284.431 682.906 284.431C683.481 284.431 684.129 284.422 684.851 284.403C685.574 284.366 686.222 284.32 686.796 284.265L687.574 284.181L687.63 286.182C685.463 286.552 683.712 286.737 682.379 286.737ZM685.518 278.541C685.518 277.041 685.277 275.976 684.796 275.346C684.333 274.716 683.546 274.401 682.434 274.401C681.267 274.401 680.415 274.735 679.878 275.402C679.341 276.05 679.063 277.096 679.045 278.541H685.518ZM691.181 272.54H693.738V274.29C695.386 273.234 697.016 272.549 698.627 272.234V274.846C697.905 274.994 697.155 275.198 696.377 275.457C695.599 275.716 694.951 275.967 694.432 276.207L693.765 276.513V286.432H691.181V272.54Z" fill="white"/>
<path d="M480.235 402.213C478.327 402.213 476.817 401.87 475.706 401.185C474.594 400.5 473.789 399.453 473.289 398.045C472.807 396.619 472.566 394.748 472.566 392.433C472.566 390.136 472.807 388.266 473.289 386.821C473.789 385.357 474.594 384.274 475.706 383.57C476.836 382.848 478.345 382.487 480.235 382.487C482.124 382.487 483.624 382.848 484.735 383.57C485.865 384.274 486.671 385.348 487.153 386.793C487.653 388.238 487.903 390.127 487.903 392.461C487.903 394.776 487.662 396.638 487.18 398.045C486.699 399.453 485.902 400.5 484.791 401.185C483.68 401.87 482.161 402.213 480.235 402.213ZM480.235 399.851C481.531 399.851 482.531 399.61 483.235 399.129C483.939 398.629 484.43 397.851 484.708 396.795C485.004 395.739 485.152 394.295 485.152 392.461C485.152 390.627 485.004 389.164 484.708 388.071C484.411 386.96 483.902 386.145 483.18 385.626C482.476 385.089 481.494 384.82 480.235 384.82C478.975 384.82 477.984 385.089 477.262 385.626C476.558 386.145 476.058 386.95 475.761 388.043C475.465 389.136 475.317 390.599 475.317 392.433C475.317 394.23 475.456 395.656 475.734 396.712C476.03 397.767 476.53 398.555 477.234 399.073C477.938 399.592 478.938 399.851 480.235 399.851ZM491.298 388.015H493.854V388.932C494.576 388.506 495.243 388.201 495.855 388.015C496.484 387.812 497.151 387.71 497.855 387.71C499.596 387.71 500.865 388.293 501.661 389.46C502.476 390.609 502.884 392.433 502.884 394.934C502.884 396.693 502.68 398.11 502.273 399.184C501.865 400.24 501.208 401.009 500.3 401.49C499.411 401.972 498.216 402.213 496.716 402.213C495.882 402.213 494.938 402.12 493.882 401.935V407.964H491.298V388.015ZM496.605 399.962C497.938 399.962 498.874 399.573 499.411 398.795C499.967 398.018 500.244 396.749 500.244 394.989C500.244 393.248 500.004 391.988 499.522 391.211C499.04 390.433 498.29 390.044 497.271 390.044C496.808 390.044 496.308 390.118 495.771 390.266C495.234 390.396 494.762 390.553 494.354 390.738L493.882 390.988V399.685C495.178 399.87 496.086 399.962 496.605 399.962ZM511.364 402.213C509.234 402.213 507.715 401.666 506.808 400.574C505.9 399.462 505.446 397.712 505.446 395.323C505.446 392.748 505.928 390.84 506.891 389.599C507.873 388.34 509.382 387.71 511.42 387.71C515.198 387.71 517.087 389.858 517.087 394.156L516.921 396.045H508.058C508.076 397.045 508.206 397.823 508.447 398.379C508.688 398.916 509.077 399.305 509.614 399.546C510.151 399.786 510.91 399.907 511.892 399.907C512.466 399.907 513.114 399.898 513.837 399.879C514.559 399.842 515.207 399.796 515.782 399.74L516.56 399.657L516.615 401.657C514.448 402.028 512.698 402.213 511.364 402.213ZM514.504 394.017C514.504 392.516 514.263 391.451 513.781 390.822C513.318 390.192 512.531 389.877 511.42 389.877C510.253 389.877 509.401 390.21 508.864 390.877C508.326 391.525 508.049 392.572 508.03 394.017H514.504ZM520.167 388.015H522.723V389.766C524.371 388.71 526.001 388.025 527.613 387.71V390.321C526.891 390.47 526.14 390.673 525.362 390.933C524.584 391.192 523.936 391.442 523.418 391.683L522.751 391.988V401.907H520.167V388.015ZM533.128 402.213C531.813 402.213 530.813 401.842 530.128 401.102C529.442 400.361 529.1 399.296 529.1 397.906C529.1 396.536 529.452 395.536 530.156 394.906C530.859 394.257 531.98 393.859 533.517 393.711L537.463 393.35V392.266C537.463 391.451 537.287 390.868 536.935 390.516C536.583 390.146 536.064 389.96 535.379 389.96C533.823 389.96 532.026 390.071 529.989 390.294L529.905 388.404C531.869 387.941 533.693 387.71 535.379 387.71C537.009 387.71 538.194 388.08 538.935 388.821C539.676 389.544 540.046 390.692 540.046 392.266V398.962C540.083 399.333 540.204 399.62 540.408 399.823C540.63 400.009 540.973 400.138 541.436 400.212L541.352 402.213C540.556 402.213 539.88 402.12 539.324 401.935C538.768 401.768 538.278 401.5 537.852 401.129C536.277 401.852 534.703 402.213 533.128 402.213ZM533.601 400.046C534.731 400.046 535.823 399.87 536.879 399.518L537.463 399.323V395.239L533.851 395.573C533.128 395.647 532.591 395.869 532.239 396.239C531.906 396.591 531.739 397.119 531.739 397.823C531.739 399.305 532.36 400.046 533.601 400.046ZM548.49 402.213C547.508 402.213 546.74 402.055 546.184 401.741C545.647 401.426 545.258 400.898 545.017 400.157C544.776 399.416 544.656 398.388 544.656 397.073V390.238H542.794V388.015H544.656V383.876H547.24V388.015H551.324V390.238H547.24V396.601C547.24 397.471 547.268 398.129 547.323 398.573C547.397 398.999 547.555 399.333 547.795 399.573C548.036 399.796 548.425 399.907 548.962 399.907L551.324 399.768L551.491 401.879C550.194 402.102 549.194 402.213 548.49 402.213ZM553.865 388.015H556.449V401.907H553.865V388.015ZM553.865 382.487H556.421V385.293H553.865V382.487ZM565.551 402.213C563.384 402.213 561.828 401.639 560.884 400.49C559.939 399.323 559.467 397.499 559.467 395.017C559.467 392.479 559.948 390.627 560.911 389.46C561.875 388.293 563.421 387.71 565.551 387.71C567.7 387.71 569.247 388.303 570.191 389.488C571.154 390.655 571.636 392.498 571.636 395.017C571.636 397.48 571.164 399.296 570.219 400.462C569.274 401.629 567.718 402.213 565.551 402.213ZM565.551 399.962C566.44 399.962 567.126 399.805 567.607 399.49C568.107 399.175 568.459 398.666 568.663 397.962C568.867 397.258 568.969 396.276 568.969 395.017C568.969 393.702 568.858 392.683 568.635 391.961C568.432 391.238 568.08 390.729 567.58 390.433C567.098 390.118 566.422 389.96 565.551 389.96C564.681 389.96 563.995 390.118 563.495 390.433C562.995 390.729 562.634 391.248 562.412 391.988C562.208 392.711 562.106 393.72 562.106 395.017C562.106 396.258 562.208 397.24 562.412 397.962C562.616 398.666 562.967 399.175 563.468 399.49C563.968 399.805 564.662 399.962 565.551 399.962ZM574.811 388.015H577.368V388.932C578.164 388.488 578.886 388.173 579.535 387.988C580.183 387.802 580.868 387.71 581.591 387.71C582.758 387.71 583.674 387.941 584.341 388.404C585.008 388.867 585.48 389.59 585.758 390.572C586.036 391.535 586.175 392.85 586.175 394.517V401.907H583.591V394.572C583.591 393.405 583.517 392.507 583.369 391.877C583.239 391.229 582.98 390.766 582.591 390.488C582.22 390.192 581.674 390.044 580.952 390.044C579.97 390.044 578.942 390.257 577.868 390.683L577.395 390.905V401.907H574.811V388.015ZM594.371 402.213C593.297 402.213 591.898 402.065 590.176 401.768L589.342 401.629L589.453 399.407C591.694 399.722 593.297 399.879 594.26 399.879C595.241 399.879 595.982 399.731 596.482 399.434C596.983 399.138 597.233 398.657 597.233 397.99C597.233 397.508 597.103 397.147 596.844 396.906C596.603 396.647 596.288 396.462 595.899 396.351C595.51 396.221 594.954 396.1 594.232 395.989L593.565 395.878C592.509 395.711 591.667 395.498 591.037 395.239C590.426 394.98 589.953 394.6 589.62 394.1C589.286 393.6 589.12 392.915 589.12 392.044C589.12 389.173 590.879 387.738 594.399 387.738C595.51 387.738 596.899 387.877 598.566 388.154L599.372 388.321L599.316 390.488C597.242 390.192 595.649 390.044 594.538 390.044C592.648 390.044 591.704 390.618 591.704 391.766C591.704 392.192 591.824 392.526 592.065 392.766C592.306 392.989 592.611 393.155 592.982 393.267C593.371 393.378 593.917 393.498 594.621 393.628C594.751 393.646 595.01 393.693 595.399 393.767C596.492 393.97 597.344 394.211 597.955 394.489C598.585 394.748 599.048 395.137 599.344 395.656C599.659 396.175 599.816 396.878 599.816 397.767C599.816 399.305 599.372 400.435 598.483 401.157C597.594 401.861 596.223 402.213 594.371 402.213ZM628.254 382.792V401.907H625.586V385.682H625.17L620.196 401.157H617.362L612.361 385.682H611.972V401.907H609.305V382.792H613.973L618.779 398.379L623.558 382.792H628.254ZM635.58 402.213C634.265 402.213 633.265 401.842 632.58 401.102C631.894 400.361 631.552 399.296 631.552 397.906C631.552 396.536 631.904 395.536 632.607 394.906C633.311 394.257 634.432 393.859 635.969 393.711L639.914 393.35V392.266C639.914 391.451 639.738 390.868 639.387 390.516C639.035 390.146 638.516 389.96 637.831 389.96C636.275 389.96 634.478 390.071 632.441 390.294L632.357 388.404C634.321 387.941 636.145 387.71 637.831 387.71C639.461 387.71 640.646 388.08 641.387 388.821C642.128 389.544 642.498 390.692 642.498 392.266V398.962C642.535 399.333 642.656 399.62 642.859 399.823C643.082 400.009 643.424 400.138 643.887 400.212L643.804 402.213C643.008 402.213 642.332 402.12 641.776 401.935C641.22 401.768 640.729 401.5 640.303 401.129C638.729 401.852 637.155 402.213 635.58 402.213ZM636.053 400.046C637.182 400.046 638.275 399.87 639.331 399.518L639.914 399.323V395.239L636.303 395.573C635.58 395.647 635.043 395.869 634.691 396.239C634.358 396.591 634.191 397.119 634.191 397.823C634.191 399.305 634.812 400.046 636.053 400.046ZM646.441 388.015H648.997V388.932C649.794 388.488 650.516 388.173 651.164 387.988C651.812 387.802 652.498 387.71 653.22 387.71C654.387 387.71 655.304 387.941 655.971 388.404C656.638 388.867 657.11 389.59 657.388 390.572C657.666 391.535 657.804 392.85 657.804 394.517V401.907H655.221V394.572C655.221 393.405 655.146 392.507 654.998 391.877C654.869 391.229 654.609 390.766 654.22 390.488C653.85 390.192 653.303 390.044 652.581 390.044C651.599 390.044 650.571 390.257 649.497 390.683L649.025 390.905V401.907H646.441V388.015ZM664.639 402.213C663.324 402.213 662.324 401.842 661.638 401.102C660.953 400.361 660.61 399.296 660.61 397.906C660.61 396.536 660.962 395.536 661.666 394.906C662.37 394.257 663.491 393.859 665.028 393.711L668.973 393.35V392.266C668.973 391.451 668.797 390.868 668.445 390.516C668.093 390.146 667.575 389.96 666.889 389.96C665.334 389.96 663.537 390.071 661.499 390.294L661.416 388.404C663.379 387.941 665.204 387.71 666.889 387.71C668.519 387.71 669.705 388.08 670.446 388.821C671.187 389.544 671.557 390.692 671.557 392.266V398.962C671.594 399.333 671.715 399.62 671.918 399.823C672.141 400.009 672.483 400.138 672.946 400.212L672.863 402.213C672.066 402.213 671.39 402.12 670.835 401.935C670.279 401.768 669.788 401.5 669.362 401.129C667.788 401.852 666.213 402.213 664.639 402.213ZM665.111 400.046C666.241 400.046 667.334 399.87 668.39 399.518L668.973 399.323V395.239L665.361 395.573C664.639 395.647 664.102 395.869 663.75 396.239C663.416 396.591 663.25 397.119 663.25 397.823C663.25 399.305 663.87 400.046 665.111 400.046ZM680.723 408.381C678.686 408.381 677.195 408.075 676.25 407.464C675.324 406.871 674.861 405.871 674.861 404.463C674.861 403.667 675.009 403.028 675.305 402.546C675.62 402.083 676.185 401.537 677 400.907C676.704 400.703 676.481 400.435 676.333 400.101C676.204 399.768 676.139 399.416 676.139 399.046C676.139 398.786 676.194 398.518 676.305 398.24C676.435 397.943 676.713 397.434 677.139 396.712C675.731 395.971 675.027 394.591 675.027 392.572C675.027 389.349 676.833 387.738 680.445 387.738C681.297 387.738 682.242 387.858 683.279 388.099L687.502 387.988V390.127L685.029 390.044C685.326 390.377 685.539 390.747 685.669 391.155C685.798 391.544 685.863 392.053 685.863 392.683C685.863 394.332 685.418 395.517 684.529 396.239C683.659 396.943 682.288 397.295 680.417 397.295C679.862 397.295 679.408 397.258 679.056 397.184C678.76 397.888 678.611 398.397 678.611 398.712C678.611 399.157 678.787 399.444 679.139 399.573C679.51 399.703 680.075 399.768 680.834 399.768H681.807C683.103 399.786 684.14 399.888 684.918 400.074C685.696 400.259 686.298 400.638 686.724 401.213C687.15 401.768 687.363 402.583 687.363 403.658C687.363 405.288 686.835 406.482 685.78 407.242C684.742 408.001 683.057 408.381 680.723 408.381ZM680.473 395.267C681.473 395.267 682.186 395.054 682.612 394.628C683.057 394.202 683.279 393.498 683.279 392.516C683.279 391.553 683.057 390.859 682.612 390.433C682.168 390.007 681.455 389.794 680.473 389.794C679.473 389.794 678.741 390.016 678.278 390.46C677.834 390.886 677.611 391.581 677.611 392.544C677.611 393.507 677.834 394.202 678.278 394.628C678.741 395.054 679.473 395.267 680.473 395.267ZM680.945 406.241C682.334 406.241 683.307 406.056 683.863 405.686C684.437 405.334 684.724 404.723 684.724 403.852C684.724 403.333 684.613 402.944 684.39 402.685C684.187 402.444 683.872 402.278 683.446 402.185C683.02 402.111 682.39 402.065 681.557 402.046L678.723 401.879C678.223 402.268 677.88 402.62 677.695 402.935C677.509 403.25 677.417 403.63 677.417 404.074C677.417 404.871 677.685 405.426 678.223 405.741C678.76 406.075 679.667 406.241 680.945 406.241ZM695.213 402.213C693.083 402.213 691.564 401.666 690.657 400.574C689.749 399.462 689.295 397.712 689.295 395.323C689.295 392.748 689.777 390.84 690.74 389.599C691.722 388.34 693.231 387.71 695.269 387.71C699.047 387.71 700.936 389.858 700.936 394.156L700.77 396.045H691.907C691.925 397.045 692.055 397.823 692.296 398.379C692.537 398.916 692.926 399.305 693.463 399.546C694 399.786 694.759 399.907 695.741 399.907C696.315 399.907 696.963 399.898 697.686 399.879C698.408 399.842 699.056 399.796 699.631 399.74L700.409 399.657L700.464 401.657C698.297 402.028 696.547 402.213 695.213 402.213ZM698.353 394.017C698.353 392.516 698.112 391.451 697.63 390.822C697.167 390.192 696.38 389.877 695.269 389.877C694.102 389.877 693.25 390.21 692.713 390.877C692.175 391.525 691.898 392.572 691.879 394.017H698.353ZM704.016 388.015H706.572V389.766C708.22 388.71 709.85 388.025 711.462 387.71V390.321C710.739 390.47 709.989 390.673 709.211 390.933C708.433 391.192 707.785 391.442 707.267 391.683L706.6 391.988V401.907H704.016V388.015Z" fill="white"/>
<path d="M865.276 217.625L746.328 1" stroke="#F58121" stroke-width="3.47294"/>
<path d="M865.276 217.625L746.328 432.947" stroke="#F58121" stroke-width="3.47294"/>
</svg>
