<svg width="69" height="69" viewBox="0 0 69 69" fill="none" xmlns="http://www.w3.org/2000/svg">
<rect x="1" y="1" width="67" height="67" rx="33.5" stroke="black" stroke-width="2"/>
<g clip-path="url(#clip0_1148_98)">
<path d="M36.6908 43.355L45.5 34.5L36.6908 25.645C36.6113 25.5405 36.5102 25.4544 36.3944 25.3923C36.2787 25.3303 36.151 25.2939 36.0199 25.2856C35.8889 25.2772 35.7575 25.2971 35.6348 25.3439C35.5122 25.3907 35.4009 25.4633 35.3088 25.5568C35.2166 25.6503 35.1455 25.7626 35.1005 25.8859C35.0555 26.0093 35.0374 26.1409 35.0477 26.2718C35.0579 26.4027 35.0961 26.5299 35.1598 26.6448C35.2235 26.7596 35.3111 26.8594 35.4167 26.9375L42.0075 33.5833L24.4717 33.5833C24.2286 33.5833 23.9954 33.6799 23.8235 33.8518C23.6516 34.0237 23.555 34.2569 23.555 34.5C23.555 34.7431 23.6516 34.9763 23.8235 35.1482C23.9954 35.3201 24.2286 35.4167 24.4717 35.4167L42.0075 35.4167L35.4167 42.0625C35.2453 42.2351 35.1495 42.4687 35.1503 42.712C35.1512 42.9552 35.2486 43.1882 35.4212 43.3596C35.5939 43.531 35.8275 43.6268 36.0707 43.6259C36.314 43.6251 36.5469 43.5276 36.7183 43.355L36.6908 43.355Z" fill="black"/>
</g>
<defs>
<clipPath id="clip0_1148_98">
<rect width="33" height="33" fill="white" transform="translate(51 18) rotate(90)"/>
</clipPath>
</defs>
</svg>
