<svg width="70" height="69" viewBox="0 0 70 69" fill="none" xmlns="http://www.w3.org/2000/svg">
<rect x="0.0585938" width="68.9515" height="69" rx="34.4757" fill="#121212"/>
<path d="M36.7494 43.355L45.5586 34.5L36.7494 25.645C36.6699 25.5405 36.5688 25.4544 36.453 25.3923C36.3373 25.3303 36.2096 25.2939 36.0785 25.2856C35.9475 25.2772 35.8161 25.2971 35.6934 25.3439C35.5707 25.3907 35.4595 25.4633 35.3673 25.5568C35.2752 25.6503 35.2041 25.7626 35.1591 25.8859C35.114 26.0093 35.096 26.1409 35.1063 26.2718C35.1165 26.4027 35.1547 26.5299 35.2184 26.6448C35.2821 26.7596 35.3697 26.8594 35.4753 26.9375L42.0661 33.5833L24.5303 33.5833C24.2871 33.5833 24.054 33.6799 23.8821 33.8518C23.7102 34.0237 23.6136 34.2569 23.6136 34.5C23.6136 34.7431 23.7102 34.9763 23.8821 35.1482C24.054 35.3201 24.2871 35.4167 24.5303 35.4167L42.0661 35.4167L35.4753 42.0625C35.3039 42.2351 35.2081 42.4687 35.2089 42.712C35.2098 42.9552 35.3072 43.1882 35.4798 43.3596C35.6525 43.531 35.8861 43.6268 36.1293 43.6259C36.3726 43.6251 36.6055 43.5276 36.7769 43.355L36.7494 43.355Z" fill="white"/>
</svg>
