<svg width="29" height="28" viewBox="0 0 29 28" fill="none" xmlns="http://www.w3.org/2000/svg">
<path d="M13.5319 21.3474C11.795 21.3474 10.0971 20.8323 8.65295 19.8674C7.20877 18.9024 6.08317 17.5309 5.41849 15.9262C4.75381 14.3215 4.57989 12.5557 4.91875 10.8522C5.2576 9.14869 6.09399 7.58391 7.32217 6.35574C8.55034 5.12756 10.1151 4.29117 11.8186 3.95232C13.5222 3.61346 15.2879 3.78737 16.8926 4.45206C18.4973 5.11674 19.8688 6.24234 20.8338 7.68652C21.7988 9.13069 22.3138 10.8286 22.3138 12.5655C22.3138 13.7187 22.0867 14.8607 21.6453 15.9262C21.204 16.9916 20.5571 17.9598 19.7417 18.7752C18.9262 19.5907 17.9581 20.2376 16.8926 20.6789C15.8271 21.1202 14.6852 21.3474 13.5319 21.3474ZM13.5319 5.54462C12.1479 5.54462 10.795 5.95502 9.64429 6.72392C8.49355 7.49282 7.59666 8.58568 7.06703 9.86432C6.5374 11.1429 6.39883 12.5499 6.66883 13.9073C6.93883 15.2647 7.60528 16.5115 8.58391 17.4902C9.56253 18.4688 10.8094 19.1352 12.1668 19.4052C13.5242 19.6752 14.9311 19.5367 16.2098 19.007C17.4884 18.4774 18.5813 17.5805 19.3502 16.4298C20.1191 15.279 20.5295 13.9261 20.5295 12.5422C20.5295 10.6863 19.7922 8.90645 18.4799 7.59415C17.1676 6.28186 15.3878 5.54462 13.5319 5.54462Z" fill="black"/>
<path d="M24.2945 24.2047C24.1796 24.2053 24.0657 24.1829 23.9596 24.1388C23.8534 24.0947 23.7572 24.0299 23.6764 23.9482L18.8598 19.1315C18.7053 18.9657 18.6211 18.7464 18.6251 18.5198C18.6291 18.2932 18.7209 18.077 18.8812 17.9167C19.0415 17.7565 19.2577 17.6647 19.4843 17.6607C19.7109 17.6567 19.9302 17.7408 20.096 17.8953L24.9126 22.7119C25.0764 22.8759 25.1684 23.0982 25.1684 23.33C25.1684 23.5618 25.0764 23.7841 24.9126 23.9482C24.8319 24.0299 24.7356 24.0947 24.6295 24.1388C24.5233 24.1829 24.4094 24.2053 24.2945 24.2047Z" fill="black"/>
</svg>
