<svg width="88" height="90" viewBox="0 0 88 90" fill="none" xmlns="http://www.w3.org/2000/svg">
<path fill-rule="evenodd" clip-rule="evenodd" d="M24.138 19.4242C24.8085 19.6098 25.2028 20.3042 25.018 20.9765C24.8323 21.6479 24.1371 22.0422 23.4656 21.8565L20.7385 21.097C20.0671 20.9114 19.6737 20.2162 19.8585 19.5447C20.0442 18.8733 20.7394 18.4799 21.4108 18.6656L24.138 19.4242ZM63.7424 70.069L54.0122 53.2162C53.7376 52.741 53.2 52.513 52.6887 52.6072C52.1932 52.682 51.4364 52.6415 50.9093 52.5553L59.1435 38.2905C60.7284 35.2122 58.6252 32.0434 55.4607 31.7283L56.6636 29.6374C58.2494 26.5618 56.1453 23.3877 52.9756 23.0735L53.1815 22.7233C55.1536 19.3256 51.9785 15.6217 48.6028 16.0722L45.5079 10.7113C44.9508 9.69136 45.5334 8.68288 46.4504 8.1452C47.2811 7.64008 48.4612 7.93136 48.976 8.82192L60.6606 29.0593C61.1613 29.9252 62.4435 29.8988 62.894 28.966C63.0744 28.6026 63.6368 27.5281 64.3654 26.15C65.3193 24.3451 66.2803 22.5429 67.243 20.7424C68.5208 18.3858 72.0909 19.4242 71.9079 22.0782L71.2549 31.8093C70.9636 36.1415 71.4459 41.8193 67.7772 43.9322C67.1708 44.2815 66.9649 45.0594 67.3152 45.6561L82.137 71.3336C82.4855 71.9373 83.2581 72.1432 83.8618 71.7938C84.4655 71.4445 84.6714 70.6718 84.3212 70.0682L70.081 45.4018C73.9222 42.3235 73.4549 36.7619 73.7752 31.9765L74.4291 22.2446C74.5118 21.0654 74.1809 19.9451 73.542 19.0334C71.4292 16.0221 66.8188 16.2139 65.0184 19.5342L61.6946 25.7989L51.1601 7.55472C49.951 5.4612 47.2591 4.7528 45.1849 5.9584C44.561 6.3192 44.011 6.80232 43.5904 7.38752L42.6074 5.68384C42.0037 4.64104 41.0331 3.94056 39.9524 3.65104C36.3585 2.6892 32.7479 6.62368 34.8194 10.1921L35.0244 10.5423C31.5907 10.882 29.8166 14.402 31.3372 17.1054L32.5402 19.1962C31.8758 19.2622 31.2096 19.4734 30.5831 19.821C28.4904 20.9078 27.6615 23.6983 28.9032 25.8446L31.2088 29.8372L26.3063 38.3283L22.9816 32.0627C22.4176 31.0226 21.5384 30.2508 20.5115 29.8178C17.1244 28.3931 13.3122 31.0076 13.5709 34.7722L14.2239 44.5042C14.5451 49.2896 14.0778 54.8512 17.919 57.9303L3.67796 82.5958C3.3286 83.2004 3.53452 83.9722 4.13732 84.3215C4.74012 84.6709 5.51276 84.465 5.86212 83.8622L20.684 58.1838C21.0333 57.5871 20.8283 56.8092 20.2211 56.4607C16.5532 54.3478 17.0355 48.6701 16.7442 44.3378L16.0912 34.6068C15.9091 31.9527 19.4784 30.9143 20.757 33.2718C21.7197 35.0723 22.6816 36.8737 23.6355 38.6794C24.3632 40.0566 24.9264 41.1311 25.1068 41.4954C25.5583 42.4282 26.8404 42.4538 27.3403 41.5887L39.0249 21.3514C39.5397 20.4617 40.7198 20.1695 41.5505 20.6755C42.4657 21.2202 43.0518 22.2146 42.493 23.2416L34.5325 37.0259C34.1832 37.6296 34.3891 38.4022 34.9919 38.7516C35.5956 39.101 36.3682 38.8942 36.7176 38.2914L47.5794 19.4814C48.0916 18.5952 49.2708 18.3145 50.0557 18.7747C51.0897 19.3828 51.6283 20.3763 50.9991 21.4587L40.1557 40.2432C39.809 40.8469 40.0176 41.6169 40.6204 41.9636C41.224 42.3103 41.994 42.1026 42.3408 41.499L51.0061 26.4888C51.2868 26.0039 51.6846 25.7188 52.1193 25.6202C53.669 25.2674 55.3445 26.8795 54.4346 28.4565L44.1412 46.2853C43.7919 46.8881 43.9969 47.6607 44.6006 48.0101C45.2043 48.3594 45.9769 48.1535 46.3263 47.5507L53.5282 35.0776C54.1222 34.0788 55.2724 34.0234 56.2368 34.5822C57.1221 35.0952 57.4213 36.2577 56.9144 37.1104L43.2392 60.7974C42.398 62.2344 41.1668 63.3951 39.684 64.1898C38.2963 64.9325 36.7572 65.2994 35.3131 65.1375C34.8018 65.0425 34.2641 65.2704 33.9896 65.7456L24.2594 82.5985C23.91 83.203 24.1151 83.9748 24.7188 84.3242C25.3224 84.6735 26.0951 84.4676 26.4444 83.8648L35.7812 67.6939C39.6224 67.789 43.5041 65.3857 45.4208 62.061L49.5867 54.853C50.4456 55.0738 51.3379 55.1874 52.224 55.1654L61.56 71.3362C61.9093 71.9399 62.6811 72.1458 63.2856 71.7965C63.8893 71.4471 64.0944 70.6745 63.745 70.0708L63.7424 70.069ZM46.2928 17.1194C45.9435 17.4248 45.639 17.7926 45.3935 18.215L44.4105 19.9178C43.5499 18.7202 42.4446 18.3215 42.3997 18.2793L37.0044 8.92752C36.3955 7.87944 36.8936 6.85688 37.888 6.2796C38.775 5.7648 39.9146 6.0728 40.4224 6.95104L46.2937 17.1186L46.2928 17.1194ZM39.376 18.0848C38.3429 18.3928 37.4198 19.0801 36.8381 20.085L36.4025 20.8401L33.5663 15.9279C33.3137 15.4888 33.2618 14.9916 33.3868 14.5243C33.7801 13.053 36.0708 12.3622 36.9939 13.9602L39.376 18.0848ZM34.9452 23.3648L32.6652 27.3134L31.0873 24.5801C30.2108 23.0832 31.7491 21.4086 33.3577 21.7315C34.2298 21.9066 34.5158 22.6194 34.9452 23.3639V23.3648ZM63.3314 34.1879C62.7304 34.5426 61.956 34.3437 61.6004 33.7435C61.2458 33.1434 61.4447 32.3681 62.0448 32.0134L64.1762 30.7559C64.7772 30.4013 65.5516 30.601 65.9072 31.2012C66.2618 31.8014 66.062 32.5766 65.4628 32.9313L63.3314 34.1888V34.1879ZM58.8654 44.3634C58.5099 43.7632 58.7096 42.9879 59.3107 42.6333C59.9108 42.2786 60.6852 42.4784 61.0399 43.0786L62.2877 45.1906C62.6432 45.7916 62.4435 46.566 61.8433 46.9215C61.2432 47.2762 60.4679 47.0773 60.1132 46.4762L58.8645 44.3642L58.8654 44.3634ZM63.1088 40.2731C62.4347 40.1015 62.0264 39.4151 62.1997 38.741C62.3713 38.067 63.0577 37.6595 63.7318 37.8311L66.473 38.5369C67.1471 38.7094 67.5554 39.3949 67.3829 40.069C67.2113 40.7439 66.5249 41.1505 65.8508 40.9789L63.1096 40.2722L63.1088 40.2731ZM28.5089 15.2327C28.8495 15.839 28.6356 16.6073 28.0293 16.9487C27.423 17.2902 26.6548 17.0754 26.3133 16.4691L25.0963 14.3149C24.7548 13.7086 24.9704 12.9412 25.5768 12.5998C26.1831 12.2583 26.9504 12.473 27.2919 13.0794L28.5089 15.2336V15.2327ZM23.8528 25.3193C24.4583 24.9778 25.2265 25.1926 25.568 25.798C25.9094 26.4034 25.6947 27.1726 25.0884 27.514L22.9517 28.7187C22.3454 29.061 21.578 28.8454 21.2366 28.24C20.8952 27.6346 21.1099 26.8663 21.7162 26.5249L23.8528 25.3193Z" fill="white"/>
</svg>
