<svg width="27" height="27" viewBox="0 0 27 27" fill="none" xmlns="http://www.w3.org/2000/svg">
<g clip-path="url(#clip0_1092_1378)">
<path d="M15.6631 13.2751L12.631 11.8603C12.3664 11.7374 12.1491 11.8751 12.1491 12.1681V14.833C12.1491 15.1259 12.3664 15.2636 12.631 15.1408L15.6618 13.726C15.9277 13.6018 15.9277 13.3993 15.6631 13.2751ZM13.4991 0.540527C6.34136 0.540527 0.539062 6.34283 0.539062 13.5005C0.539062 20.6582 6.34136 26.4605 13.4991 26.4605C20.6568 26.4605 26.4591 20.6582 26.4591 13.5005C26.4591 6.34283 20.6568 0.540527 13.4991 0.540527ZM13.4991 18.7655C6.86516 18.7655 6.74906 18.1675 6.74906 13.5005C6.74906 8.83358 6.86516 8.23553 13.4991 8.23553C20.133 8.23553 20.2491 8.83358 20.2491 13.5005C20.2491 18.1675 20.133 18.7655 13.4991 18.7655Z" fill="#FAFAFA"/>
</g>
<defs>
<clipPath id="clip0_1092_1378">
<rect width="27" height="27" fill="white"/>
</clipPath>
</defs>
</svg>
